<?xml version="1.0" encoding="UTF-8" ?>
<!DOCTYPE svg PUBLIC "-//W3C//DTD SVG 1.1//EN" "http://www.w3.org/Graphics/SVG/1.1/DTD/svg11.dtd">
<svg width="1145pt" height="139pt" viewBox="0 0 1145 139" version="1.1" xmlns="http://www.w3.org/2000/svg">
<g id="#050708ff">
<path fill="#050708" opacity="1.00" d=" M 54.67 0.00 L 81.27 0.00 C 96.56 2.64 111.97 6.29 125.54 14.10 C 122.21 22.11 118.31 29.88 114.08 37.45 C 107.20 34.71 100.44 31.54 93.23 29.71 C 81.80 26.55 69.79 25.95 58.00 26.86 C 49.44 27.59 40.31 31.03 35.70 38.73 C 30.56 46.85 31.61 56.85 31.57 66.00 C 31.81 74.26 30.91 82.59 32.25 90.78 C 33.45 98.13 38.18 104.88 44.91 108.18 C 52.34 111.84 60.84 112.25 68.98 112.21 C 78.77 112.06 88.56 110.69 97.89 107.64 C 98.59 99.91 98.50 92.12 97.96 84.38 C 89.19 84.29 80.41 84.74 71.65 84.13 C 75.79 75.35 80.92 67.08 86.03 58.84 C 100.58 58.68 115.14 58.44 129.68 58.99 C 129.61 80.47 129.99 101.96 129.49 123.43 C 105.45 137.39 76.61 140.65 49.36 137.63 C 34.86 135.66 19.92 130.18 10.29 118.68 C 4.62 112.13 1.76 103.73 0.00 95.38 L 0.00 43.62 C 1.45 36.12 3.82 28.62 8.36 22.39 C 13.39 15.28 20.69 10.03 28.61 6.56 C 36.84 2.88 45.82 1.38 54.67 0.00 Z" />
<path fill="#050708" opacity="1.00" d=" M 193.71 0.00 L 222.26 0.00 C 231.88 1.97 241.76 3.74 250.46 8.53 C 260.31 13.67 268.41 22.32 272.12 32.87 C 276.06 43.12 274.85 54.27 275.00 65.00 C 274.83 74.64 275.38 84.29 274.72 93.91 C 273.69 106.96 266.69 119.42 255.81 126.78 C 241.64 136.55 223.83 138.88 207.00 138.59 C 192.89 138.72 178.37 136.83 165.73 130.19 C 155.93 125.09 147.70 116.61 143.92 106.13 C 139.60 94.59 140.90 82.06 140.71 70.00 C 140.95 58.36 139.65 46.40 143.08 35.09 C 146.07 24.76 153.20 15.88 162.36 10.33 C 171.77 4.28 182.91 2.12 193.71 0.00 M 195.34 27.37 C 187.30 28.71 179.22 33.02 175.52 40.58 C 171.09 49.38 172.51 59.51 172.29 69.00 C 172.54 78.79 170.97 89.29 175.69 98.33 C 179.55 105.87 187.77 110.02 195.86 111.27 C 205.03 112.69 214.53 112.66 223.59 110.53 C 230.95 108.77 237.88 103.99 240.92 96.89 C 244.45 89.08 243.25 80.30 243.42 72.00 C 243.19 64.03 244.00 56.00 242.88 48.08 C 241.63 39.68 235.65 32.23 227.63 29.36 C 217.37 25.56 206.02 26.11 195.34 27.37 Z" />
<path fill="#050708" opacity="1.00" d=" M 287.31 2.01 C 297.73 1.53 308.21 1.45 318.63 2.07 C 318.52 30.37 318.61 58.68 318.58 86.99 C 318.67 94.57 318.30 102.16 318.83 109.73 C 340.22 109.71 361.61 109.71 383.00 109.71 C 388.90 109.68 394.81 109.56 400.70 109.99 C 400.68 118.85 400.87 127.71 400.57 136.57 C 366.39 136.92 332.20 136.57 298.01 136.74 C 294.48 136.76 290.95 136.70 287.43 136.57 C 287.11 91.72 287.36 46.86 287.31 2.01 Z" />
<path fill="#050708" opacity="1.00" d=" M 407.31 2.04 C 426.85 1.27 446.44 1.94 466.00 1.69 C 482.78 1.59 500.68 3.29 514.84 13.16 C 525.25 20.22 531.95 31.97 533.51 44.38 C 534.66 52.87 534.21 61.46 534.29 70.00 C 534.21 79.31 534.76 88.74 532.86 97.92 C 530.66 108.55 524.63 118.41 515.76 124.76 C 502.90 134.01 486.53 136.81 470.99 136.74 C 449.81 136.58 428.61 136.93 407.43 136.56 C 407.11 91.73 407.36 46.88 407.31 2.04 M 438.74 29.05 C 438.39 37.36 438.65 45.68 438.58 54.00 C 438.75 72.57 438.24 91.16 438.83 109.72 C 448.55 109.75 458.27 109.66 468.00 109.74 C 477.83 109.93 488.97 108.69 495.94 100.95 C 503.27 93.26 503.04 81.90 503.02 72.00 C 502.76 61.72 504.20 50.54 498.73 41.28 C 493.75 32.76 483.51 29.15 474.07 29.04 C 462.29 28.96 450.51 28.96 438.74 29.05 Z" />
<path fill="#050708" opacity="1.00" d=" M 533.59 1.91 C 544.39 1.54 555.21 1.64 566.02 1.85 C 571.96 26.18 577.22 50.68 582.89 75.07 C 584.79 82.11 585.47 89.51 588.35 96.26 C 598.23 64.92 607.43 33.36 617.17 1.97 C 626.36 1.53 635.58 1.51 644.76 1.98 C 651.71 24.78 658.62 47.59 665.56 70.38 C 668.40 79.05 670.46 87.98 673.84 96.46 C 677.05 85.38 679.06 74.00 681.81 62.81 C 686.63 42.50 690.78 22.03 695.96 1.82 C 706.74 1.67 717.53 1.52 728.31 1.91 C 727.21 9.19 724.99 16.23 723.31 23.38 C 713.61 61.09 704.44 98.94 694.71 136.64 C 683.19 136.80 671.67 136.71 660.15 136.69 C 652.62 114.65 646.06 92.29 638.89 70.13 C 636.06 62.06 634.33 53.60 630.71 45.83 C 620.97 76.08 611.78 106.51 601.82 136.68 C 590.29 136.73 578.77 136.78 567.24 136.65 C 556.20 93.90 545.66 51.02 534.80 8.23 C 534.32 6.14 533.94 4.02 533.59 1.91 Z" />
<path fill="#050708" opacity="1.00" d=" M 736.79 1.82 C 763.19 1.55 789.60 1.79 816.00 1.71 C 825.36 1.81 834.72 1.47 844.08 1.91 C 844.42 10.88 844.47 19.88 844.04 28.85 C 818.71 29.24 793.37 28.83 768.04 29.04 C 767.95 37.78 767.94 46.52 768.05 55.26 C 789.30 55.61 810.56 55.39 831.82 55.35 C 832.16 63.88 832.02 72.41 831.94 80.94 C 810.64 81.13 789.34 80.88 768.04 81.05 C 767.98 90.61 767.88 100.18 768.12 109.74 C 794.80 109.78 821.48 109.52 848.15 109.85 C 848.35 118.80 848.52 127.77 848.02 136.71 C 818.01 136.72 788.01 136.71 758.00 136.71 C 750.84 136.65 743.68 136.93 736.53 136.51 C 736.25 95.67 736.54 54.84 736.39 14.00 C 736.30 9.94 736.38 5.87 736.79 1.82 Z" />
<path fill="#050708" opacity="1.00" d=" M 860.09 1.91 C 870.42 1.56 880.77 1.59 891.11 1.89 C 891.54 37.83 891.16 73.77 891.29 109.71 C 918.58 109.82 945.87 109.50 973.15 109.85 C 973.35 118.80 973.52 127.77 973.02 136.71 C 935.40 136.72 897.78 136.70 860.16 136.72 C 859.78 114.15 860.11 91.57 860.00 69.00 C 860.06 46.64 859.87 24.27 860.09 1.91 Z" />
<path fill="#050708" opacity="1.00" d=" M 980.11 1.91 C 990.44 1.55 1000.79 1.59 1011.13 1.89 C 1011.52 37.82 1011.17 73.77 1011.29 109.71 C 1038.60 109.83 1065.91 109.48 1093.22 109.87 C 1093.52 118.81 1093.68 127.77 1093.11 136.70 C 1055.46 136.73 1017.81 136.70 980.16 136.71 C 979.78 116.48 980.11 96.24 980.00 76.00 C 980.08 51.30 979.85 26.61 980.11 1.91 Z" />
</g>
<g id="#d91f31ff">
<path fill="#d91f31" opacity="1.00" d=" M 1117.10 109.88 C 1126.11 109.61 1135.13 109.65 1144.15 109.86 C 1144.32 118.81 1144.46 127.77 1144.04 136.71 C 1135.08 136.74 1126.13 136.76 1117.17 136.70 C 1116.85 127.77 1116.95 118.82 1117.10 109.88 Z" />
</g>
</svg>
