<?xml version="1.0" encoding="UTF-8" ?>
<!DOCTYPE svg PUBLIC "-//W3C//DTD SVG 1.1//EN" "http://www.w3.org/Graphics/SVG/1.1/DTD/svg11.dtd">
<svg width="1000pt" height="254pt" viewBox="0 0 1000 254" version="1.1" xmlns="http://www.w3.org/2000/svg">
<g id="#181f42ff">
<path fill="#181f42" opacity="1.00" d=" M 0.00 0.00 L 28.62 0.00 C 28.49 45.00 28.62 90.00 28.56 135.00 C 28.51 140.82 28.51 146.64 28.82 152.45 C 34.03 148.15 38.84 143.39 43.57 138.57 C 62.85 119.52 82.24 100.58 101.45 81.46 C 103.63 79.46 105.84 76.96 108.97 76.70 C 112.30 76.31 115.66 76.48 119.00 76.51 C 128.74 76.73 138.49 76.29 148.23 76.80 C 126.63 98.54 104.23 119.47 82.49 141.06 C 102.39 171.21 122.79 201.04 142.89 231.06 C 146.82 236.84 150.88 242.54 154.33 248.63 C 145.88 248.85 137.44 248.60 129.00 248.81 C 126.18 248.79 123.29 249.01 120.53 248.29 C 119.14 247.46 118.20 246.10 117.24 244.83 C 98.81 217.02 80.14 189.37 61.56 161.67 C 52.05 169.75 43.69 179.06 34.45 187.43 C 31.74 190.03 28.11 192.71 28.40 196.93 C 28.25 214.19 28.76 231.47 28.23 248.73 C 18.82 248.75 9.41 248.67 0.00 248.76 L 0.00 0.00 Z" />
<path fill="#181f42" opacity="1.00" d=" M 317.75 0.00 L 346.25 0.00 C 346.30 33.98 346.32 67.96 346.23 101.94 C 358.12 86.82 375.36 75.56 394.57 72.76 C 412.00 70.46 430.17 73.96 445.53 82.53 C 468.51 95.28 484.53 119.17 488.70 145.00 C 492.49 126.57 501.25 109.00 514.93 95.92 C 528.43 82.72 546.47 74.27 565.27 72.47 C 580.73 70.95 596.63 73.60 610.62 80.40 C 629.09 89.26 643.90 105.15 652.13 123.84 C 655.06 130.30 656.93 137.16 658.59 144.03 C 660.47 137.57 662.22 131.04 664.90 124.85 C 672.99 106.08 687.59 90.03 705.94 80.90 C 733.13 67.05 767.78 69.66 792.54 87.49 C 811.33 100.77 823.96 121.67 828.52 144.09 C 830.72 136.38 832.77 128.56 836.39 121.37 C 844.92 103.61 859.40 88.65 877.26 80.22 C 904.85 66.78 939.78 70.12 964.19 88.79 C 985.50 104.58 998.33 130.31 1000.00 156.61 L 1000.00 174.29 C 999.05 178.85 998.03 183.39 996.88 187.90 C 992.08 206.40 981.08 223.25 965.99 235.01 C 942.16 254.00 907.85 258.07 879.97 246.07 C 861.80 238.33 846.67 224.00 837.52 206.55 C 833.29 198.83 830.91 190.32 828.51 181.91 C 824.09 203.11 812.38 222.93 794.90 235.91 C 770.51 254.60 735.71 258.07 707.94 245.08 C 690.17 237.00 675.57 222.50 666.88 205.06 C 663.07 197.77 660.87 189.82 658.58 181.96 C 655.09 198.30 647.57 213.86 636.04 226.05 C 623.57 239.44 606.64 248.58 588.59 251.61 C 572.80 254.21 556.26 252.68 541.42 246.57 C 521.92 238.71 505.84 223.19 496.64 204.35 C 493.15 197.45 491.13 189.95 488.82 182.60 C 487.93 185.51 487.12 188.43 486.24 191.34 C 480.53 210.69 468.12 228.14 451.25 239.29 C 436.84 248.99 419.30 253.72 401.98 253.15 C 386.45 252.61 371.34 246.46 359.34 236.67 C 354.02 232.42 349.63 227.17 345.26 221.97 C 345.24 230.89 345.46 239.82 345.10 248.73 C 336.03 248.73 326.96 248.73 317.90 248.73 C 317.47 218.83 317.84 188.91 317.72 159.00 C 317.74 106.00 317.67 53.00 317.75 0.00 M 396.34 99.39 C 375.35 102.73 357.90 119.04 350.68 138.68 C 344.63 154.66 344.69 172.91 351.29 188.70 C 356.88 202.30 367.07 214.17 380.25 220.86 C 393.15 227.63 408.95 228.76 422.60 223.59 C 433.47 219.56 442.90 212.02 449.54 202.56 C 460.63 186.92 464.26 166.53 460.21 147.89 C 456.87 131.96 447.68 117.02 434.07 107.88 C 423.15 100.48 409.40 97.19 396.34 99.39 M 564.34 99.31 C 544.98 102.87 529.01 117.74 521.67 135.68 C 514.49 152.67 514.27 172.55 521.44 189.57 C 527.39 203.81 538.63 216.05 552.93 222.13 C 566.85 228.30 583.44 227.85 597.07 221.11 C 612.78 213.57 624.38 198.68 629.06 182.02 C 632.66 169.67 632.60 156.33 629.09 143.97 C 624.39 126.81 612.61 111.29 596.39 103.59 C 586.51 98.79 575.13 97.38 564.34 99.31 M 733.36 99.45 C 722.19 101.79 711.94 107.87 704.17 116.18 C 684.26 137.17 680.30 171.25 694.66 196.34 C 702.43 210.11 715.57 221.17 731.07 224.96 C 744.96 228.43 760.15 225.89 772.22 218.23 C 786.28 209.53 796.09 194.77 799.81 178.77 C 802.18 168.16 802.10 156.99 799.62 146.41 C 795.58 129.25 784.62 113.50 769.03 104.98 C 758.28 98.97 745.41 97.11 733.36 99.45 M 903.37 99.44 C 892.41 101.68 882.33 107.54 874.60 115.58 C 854.22 136.53 850.05 171.07 864.59 196.37 C 872.04 209.74 884.59 220.41 899.43 224.55 C 910.86 227.75 923.38 226.98 934.29 222.27 C 949.55 215.88 961.45 202.57 967.16 187.15 C 973.71 169.61 972.78 149.41 964.55 132.59 C 958.28 119.28 947.24 108.09 933.58 102.43 C 924.11 98.42 913.44 97.53 903.37 99.44 Z" />
<path fill="#181f42" opacity="1.00" d=" M 205.92 73.93 C 220.98 71.21 236.59 71.44 251.58 74.45 C 266.26 77.51 280.91 84.89 289.09 97.93 C 294.39 106.23 296.60 116.19 296.59 125.95 C 296.55 153.97 296.58 181.98 296.57 210.00 C 296.57 216.01 296.36 222.04 296.99 228.04 C 297.60 235.06 299.52 241.87 301.15 248.71 C 291.80 248.75 282.46 248.72 273.12 248.71 C 270.59 242.73 269.39 236.33 268.79 229.89 C 263.65 235.13 258.12 240.12 251.56 243.52 C 234.67 252.61 214.76 254.04 196.00 252.00 C 180.00 249.95 163.50 243.83 153.05 230.99 C 142.74 218.38 140.75 200.75 144.30 185.26 C 146.86 174.01 154.23 164.09 164.07 158.13 C 177.50 149.85 193.46 147.01 208.98 145.91 C 222.88 145.03 236.97 144.38 250.42 140.51 C 256.67 138.59 263.40 135.75 266.76 129.78 C 270.45 122.57 268.12 113.14 262.02 107.98 C 254.32 101.33 243.81 99.39 233.97 98.69 C 219.95 97.89 204.52 99.04 193.12 108.14 C 186.57 113.21 183.25 121.15 181.80 129.10 C 171.94 129.40 162.07 129.47 152.22 129.03 C 153.18 117.57 156.81 106.12 164.14 97.11 C 174.33 84.20 190.04 76.90 205.92 73.93 M 246.39 166.30 C 230.63 170.10 214.21 168.98 198.41 172.37 C 190.82 174.11 183.03 176.81 177.44 182.46 C 171.06 188.93 169.53 199.14 172.36 207.58 C 174.75 214.61 180.96 219.63 187.70 222.26 C 198.97 226.58 211.41 226.91 223.26 225.36 C 235.67 223.70 248.34 219.40 257.32 210.33 C 264.78 202.98 268.59 192.43 268.60 182.05 C 268.59 173.70 268.54 165.34 268.60 156.98 C 261.80 161.35 254.36 164.77 246.39 166.30 Z" />
</g>
</svg>
