<?xml version="1.0" encoding="UTF-8" ?>
<!DOCTYPE svg PUBLIC "-//W3C//DTD SVG 1.1//EN" "http://www.w3.org/Graphics/SVG/1.1/DTD/svg11.dtd">
<svg width="1000pt" height="254pt" viewBox="0 0 1000 254" version="1.1" xmlns="http://www.w3.org/2000/svg">
<g id="#ffffffff">
<path fill="#ffffff" opacity="1.00" d=" M 0.00 0.00 L 28.50 0.00 C 28.50 51.12 28.50 102.24 28.50 153.35 C 54.59 127.79 80.55 102.09 106.61 76.50 C 120.73 76.51 134.85 76.45 148.96 76.54 C 126.55 97.86 104.61 119.69 82.26 141.08 C 106.51 176.90 130.60 212.83 154.74 248.73 C 143.16 248.78 131.58 248.73 120.01 248.75 C 100.50 219.65 80.89 190.63 61.51 161.44 C 50.35 171.92 39.48 182.72 28.49 193.39 C 28.51 211.84 28.50 230.30 28.50 248.75 C 19.00 248.75 9.50 248.75 0.00 248.75 L 0.00 0.00 Z" />
<path fill="#ffffff" opacity="1.00" d=" M 317.75 0.00 L 346.25 0.00 C 346.25 34.04 346.26 68.08 346.24 102.12 C 358.19 86.35 376.32 75.08 396.06 72.59 C 412.80 70.69 430.12 74.12 444.91 82.20 C 468.34 94.86 484.46 119.12 488.85 145.19 C 493.05 121.68 506.71 99.82 526.59 86.44 C 553.73 67.68 592.04 67.27 619.56 85.45 C 640.31 98.68 654.42 121.16 658.71 145.26 C 661.71 128.96 669.04 113.44 680.01 100.99 C 692.37 86.82 709.52 76.82 728.07 73.48 C 748.80 69.61 771.01 73.63 788.81 85.04 C 809.79 98.21 824.21 120.76 828.57 145.04 C 831.86 128.12 839.61 112.00 851.37 99.33 C 862.90 86.85 878.21 77.80 894.83 74.12 C 914.16 69.80 935.08 72.25 952.63 81.55 C 965.77 88.29 976.93 98.69 984.96 111.05 C 993.95 124.60 998.84 140.63 1000.00 156.79 L 1000.00 169.39 C 998.85 185.47 993.80 201.37 984.75 214.76 C 975.19 229.21 961.14 240.68 944.99 247.00 C 931.08 252.51 915.71 253.99 900.92 251.94 C 882.70 249.36 865.48 240.51 852.67 227.31 C 840.19 214.75 831.99 198.28 828.58 180.96 C 823.79 207.32 806.72 231.47 782.65 243.57 C 766.86 251.77 748.47 254.42 730.93 251.92 C 714.15 249.51 698.22 241.81 685.80 230.29 C 671.71 217.30 662.18 199.57 658.72 180.75 C 654.22 205.76 638.78 228.84 616.60 241.48 C 599.66 251.44 579.20 254.80 559.87 251.74 C 542.79 249.03 526.60 240.90 514.31 228.71 C 501.04 215.94 492.18 198.81 488.83 180.73 C 484.10 208.25 466.09 233.58 440.52 245.35 C 426.74 251.71 411.17 254.40 396.07 252.66 C 375.70 250.09 356.89 238.24 345.20 221.44 C 345.30 230.54 345.23 239.64 345.25 248.75 C 336.08 248.75 326.92 248.76 317.75 248.74 C 317.75 165.83 317.75 82.91 317.75 0.00 M 394.54 99.72 C 372.93 103.93 355.60 121.75 349.37 142.50 C 344.30 158.67 345.41 176.75 352.77 192.05 C 359.40 206.09 371.25 217.86 385.87 223.37 C 398.96 228.44 414.10 227.89 426.78 221.86 C 439.06 216.14 448.88 205.81 454.79 193.71 C 463.97 175.12 464.07 152.45 455.53 133.61 C 450.02 121.61 440.86 111.07 429.09 104.90 C 418.62 99.30 406.19 97.34 394.54 99.72 M 562.50 99.69 C 544.39 103.70 529.57 117.61 522.23 134.36 C 514.13 152.49 514.05 174.18 522.60 192.16 C 528.67 205.04 539.12 216.05 552.22 221.84 C 564.98 227.71 580.07 228.02 593.11 222.86 C 609.03 216.68 621.48 203.05 627.38 187.15 C 637.63 160.43 629.40 127.15 606.33 109.69 C 594.13 100.14 577.65 96.15 562.50 99.69 M 732.44 99.65 C 721.61 102.10 711.72 108.09 704.18 116.19 C 683.90 137.48 680.19 172.36 695.34 197.53 C 703.35 211.03 716.60 221.78 732.09 225.19 C 745.21 228.29 759.41 225.84 770.97 218.99 C 785.02 210.78 795.13 196.58 799.26 180.94 C 806.37 154.88 797.06 124.35 774.70 108.56 C 762.70 99.79 746.96 96.36 732.44 99.65 M 902.43 99.65 C 893.44 101.65 885.06 106.09 878.18 112.18 C 856.72 130.94 850.11 163.88 861.35 189.86 C 868.27 206.32 882.45 220.02 899.89 224.67 C 911.45 227.90 924.09 226.84 935.03 221.95 C 951.65 214.71 964.06 199.30 968.85 181.96 C 977.32 153.60 965.39 119.48 938.99 105.03 C 927.98 98.90 914.73 96.87 902.43 99.65 Z" />
<path fill="#ffffff" opacity="1.00" d=" M 170.44 90.45 C 185.17 77.15 205.57 72.46 224.94 72.03 C 243.55 71.97 263.45 74.66 278.59 86.39 C 289.88 94.96 296.14 108.96 296.48 122.98 C 296.54 156.02 296.47 189.07 296.51 222.12 C 297.01 231.15 298.50 240.20 301.54 248.74 C 292.09 248.76 282.64 248.74 273.19 248.75 C 270.47 242.67 269.17 236.01 268.94 229.37 C 257.25 243.61 238.94 250.73 220.96 252.32 C 202.45 253.87 182.84 251.98 166.52 242.44 C 155.00 235.83 146.26 224.31 143.85 211.15 C 141.28 197.33 142.79 181.98 151.03 170.23 C 158.84 159.15 171.71 152.95 184.53 149.67 C 206.82 143.58 230.63 147.19 252.66 139.81 C 258.54 137.78 264.79 134.56 267.37 128.54 C 270.32 121.27 267.60 112.38 261.53 107.55 C 254.08 101.40 244.17 99.52 234.80 98.70 C 221.60 97.86 207.43 98.74 195.97 106.02 C 187.99 111.07 182.94 119.92 181.98 129.25 C 172.14 129.25 162.29 129.25 152.45 129.25 C 152.91 114.60 159.40 100.17 170.44 90.45 M 250.50 165.28 C 240.20 168.04 229.54 169.03 218.93 169.79 C 208.86 170.41 198.64 171.49 189.16 175.13 C 182.92 177.55 176.85 181.47 173.71 187.57 C 169.03 196.88 170.24 209.56 178.41 216.56 C 186.92 224.16 198.89 225.81 209.86 226.24 C 225.43 226.16 241.96 223.17 254.32 213.08 C 263.33 205.87 268.45 194.44 268.51 182.98 C 268.51 174.14 268.45 165.31 268.53 156.47 C 263.37 160.87 256.98 163.51 250.50 165.28 Z" />
</g>
</svg>
