<?xml version="1.0" encoding="UTF-8" ?>
<!DOCTYPE svg PUBLIC "-//W3C//DTD SVG 1.1//EN" "http://www.w3.org/Graphics/SVG/1.1/DTD/svg11.dtd">
<svg width="2323pt" height="656pt" viewBox="0 0 2323 656" version="1.1" xmlns="http://www.w3.org/2000/svg">
<g id="#14191cff">
<path fill="#14191c" opacity="1.00" d=" M 0.00 0.00 L 49.88 0.00 C 49.87 66.33 49.87 132.67 49.88 199.00 C 49.92 205.52 49.68 212.05 50.09 218.57 C 54.52 216.85 57.80 213.35 60.80 209.81 C 123.03 139.83 185.41 69.99 247.62 0.00 L 299.54 0.00 C 248.56 51.86 197.68 103.84 146.74 155.74 C 129.14 173.84 111.23 191.63 93.83 209.91 C 141.96 269.18 190.34 328.26 238.56 387.45 C 260.37 414.34 282.49 440.99 304.11 468.02 C 284.06 468.30 264.01 468.00 243.97 468.18 C 241.49 468.00 238.28 468.71 236.77 466.18 C 178.58 391.41 120.37 316.63 62.19 241.84 C 58.54 237.34 55.52 231.94 50.07 229.34 C 49.61 257.55 50.01 285.78 49.88 314.00 C 49.85 365.34 49.92 416.69 49.84 468.03 C 33.23 468.26 16.61 468.07 0.00 468.12 L 0.00 0.00 Z" />
<path fill="#14191c" opacity="1.00" d=" M 462.46 3.49 C 469.17 -1.43 479.42 1.49 483.51 8.45 C 485.83 12.51 486.89 17.35 486.45 22.01 C 485.41 27.47 481.47 31.92 476.98 34.96 C 452.40 52.05 427.74 69.03 403.18 86.16 C 402.14 86.76 401.13 87.62 399.87 87.66 C 394.92 87.94 389.96 87.68 385.01 87.76 C 404.06 66.23 423.43 44.99 442.62 23.59 C 449.17 16.83 454.98 9.29 462.46 3.49 Z" />
<path fill="#14191c" opacity="1.00" d=" M 973.34 109.33 C 976.95 109.73 981.84 107.92 984.64 110.40 C 1030.11 227.94 1075.39 345.58 1120.85 463.13 C 1121.37 464.60 1121.73 466.11 1122.13 467.63 C 1106.80 467.66 1091.47 467.59 1076.14 467.66 C 1069.26 449.71 1063.14 431.46 1056.56 413.40 C 1046.58 385.38 1036.50 357.39 1026.59 329.35 C 989.39 329.13 952.20 329.33 915.00 329.25 C 913.59 328.96 912.44 329.75 912.14 331.13 C 895.28 376.62 878.42 422.10 861.58 467.59 C 850.82 467.73 840.07 467.53 829.32 467.70 C 877.31 348.24 925.34 228.79 973.34 109.33 M 959.95 201.89 C 947.88 234.16 935.83 266.44 923.75 298.71 C 922.57 301.61 921.44 304.54 920.88 307.63 C 953.30 307.62 985.72 307.63 1018.15 307.63 C 1017.48 304.03 1016.01 300.68 1014.72 297.29 C 999.65 257.19 984.52 217.11 969.51 176.99 C 965.88 185.11 963.19 193.61 959.95 201.89 Z" />
<path fill="#14191c" opacity="1.00" d=" M 1727.50 109.38 C 1731.16 109.17 1734.85 109.17 1738.54 109.37 C 1784.51 228.84 1830.70 348.21 1876.78 467.63 C 1861.27 467.64 1845.77 467.61 1830.27 467.65 C 1813.57 421.60 1797.34 375.38 1780.72 329.29 C 1742.87 329.21 1705.01 329.26 1667.16 329.27 C 1649.81 375.31 1633.04 421.58 1615.73 467.63 C 1605.12 467.62 1594.51 467.66 1583.91 467.62 C 1590.08 450.82 1597.18 434.37 1603.71 417.71 C 1644.94 314.92 1686.39 212.22 1727.50 109.38 M 1720.32 185.36 C 1712.07 207.44 1703.82 229.51 1695.57 251.59 C 1688.78 270.30 1681.32 288.78 1674.92 307.62 C 1707.55 307.64 1740.17 307.62 1772.80 307.63 C 1756.46 264.08 1740.09 220.53 1723.65 177.02 C 1722.34 179.73 1721.27 182.52 1720.32 185.36 Z" />
<path fill="#14191c" opacity="1.00" d=" M 1941.45 129.46 C 1957.71 118.09 1977.24 111.99 1996.90 110.17 C 2024.33 107.71 2052.13 113.67 2077.04 125.15 C 2077.17 139.19 2077.24 153.23 2076.99 167.27 C 2064.63 153.24 2050.20 140.46 2032.73 133.24 C 2015.52 125.84 1995.67 125.27 1977.89 130.96 C 1965.43 134.99 1954.47 143.58 1948.00 155.00 C 1937.24 173.82 1935.49 198.13 1945.29 217.70 C 1952.27 231.57 1965.10 241.41 1978.70 248.29 C 1993.49 255.67 2009.10 261.22 2024.29 267.70 C 2041.52 275.02 2059.47 281.83 2073.93 294.11 C 2083.30 301.61 2090.90 311.35 2095.60 322.42 C 2103.04 339.78 2104.31 359.24 2101.87 377.81 C 2099.39 396.35 2092.66 414.44 2081.58 429.58 C 2070.87 444.36 2056.05 456.04 2039.35 463.36 C 2021.99 471.05 2002.90 474.23 1984.00 474.39 C 1958.03 474.68 1931.52 469.30 1909.03 455.95 C 1909.00 441.19 1908.92 426.43 1909.07 411.68 C 1918.41 422.10 1928.28 432.27 1940.20 439.80 C 1955.19 449.63 1972.98 455.53 1991.00 455.27 C 2008.26 455.26 2026.05 450.68 2039.65 439.67 C 2054.04 428.24 2062.56 410.49 2064.31 392.36 C 2065.92 375.66 2063.04 357.81 2052.98 344.02 C 2043.46 330.79 2029.03 322.30 2014.56 315.48 C 1994.58 306.43 1974.36 297.93 1954.56 288.49 C 1941.75 282.47 1929.14 275.03 1920.18 263.83 C 1910.16 251.03 1905.20 234.93 1903.53 218.93 C 1901.88 201.09 1904.00 182.66 1911.18 166.14 C 1917.57 151.40 1928.24 138.60 1941.45 129.46 Z" />
<path fill="#14191c" opacity="1.00" d=" M 1233.19 112.59 C 1262.84 108.40 1293.53 114.11 1320.47 126.89 C 1320.39 140.77 1320.74 154.66 1320.28 168.54 C 1315.78 164.43 1312.08 159.54 1307.47 155.55 C 1292.71 141.90 1274.30 131.13 1253.99 129.11 C 1240.32 127.94 1226.09 129.60 1213.66 135.67 C 1203.06 140.84 1194.46 149.76 1189.35 160.35 C 1180.61 178.36 1179.52 200.46 1188.37 218.65 C 1195.80 234.02 1210.34 244.39 1225.38 251.55 C 1240.18 258.47 1255.54 264.11 1270.57 270.50 C 1287.74 277.74 1305.48 284.89 1319.52 297.51 C 1333.19 308.93 1341.66 325.67 1344.67 343.08 C 1349.97 374.55 1342.63 408.55 1322.88 433.90 C 1313.48 445.95 1301.33 455.83 1287.64 462.63 C 1270.46 471.28 1251.21 475.24 1232.08 475.87 C 1204.58 476.88 1176.32 471.66 1152.41 457.61 C 1152.28 442.75 1152.46 427.88 1152.32 413.01 C 1161.42 423.48 1171.30 433.44 1182.99 441.03 C 1197.73 450.83 1215.19 456.89 1232.99 456.89 C 1250.52 457.10 1268.67 452.70 1282.59 441.63 C 1297.20 430.24 1305.83 412.32 1307.62 394.06 C 1309.22 377.34 1306.41 359.48 1296.35 345.65 C 1286.69 332.21 1271.99 323.66 1257.28 316.76 C 1237.74 307.93 1217.98 299.60 1198.61 290.40 C 1183.89 283.56 1169.21 274.75 1160.22 260.80 C 1147.62 241.11 1144.43 216.62 1147.40 193.76 C 1150.06 172.37 1160.18 151.78 1176.52 137.56 C 1192.27 123.65 1212.54 115.58 1233.19 112.59 Z" />
<path fill="#14191c" opacity="1.00" d=" M 343.93 116.93 C 398.57 116.86 453.21 116.79 507.85 116.96 C 507.90 124.99 507.90 133.01 507.85 141.04 C 466.83 141.25 425.80 141.06 384.77 141.14 C 384.45 177.42 384.72 213.71 384.63 250.00 C 384.76 256.56 384.31 263.13 384.90 269.67 C 422.33 269.63 459.76 269.53 497.18 269.72 C 497.31 277.21 497.31 284.69 497.18 292.18 C 459.73 292.35 422.28 292.22 384.83 292.24 C 384.36 315.49 384.77 338.75 384.63 362.00 C 384.72 388.62 384.45 415.24 384.76 441.86 C 416.84 441.89 448.92 441.86 481.00 441.87 C 490.90 441.99 500.80 441.60 510.69 442.08 C 510.51 450.02 510.24 457.97 510.66 465.92 C 493.11 466.41 475.55 465.99 458.00 466.13 C 419.98 466.09 381.95 466.20 343.93 466.07 C 343.83 349.69 343.83 233.31 343.93 116.93 Z" />
<path fill="#14191c" opacity="1.00" d=" M 581.72 116.93 C 611.81 116.80 641.91 116.91 672.00 116.87 C 691.49 116.59 711.27 117.96 729.91 124.04 C 745.64 129.11 760.64 137.88 770.83 151.13 C 780.71 163.82 785.31 180.05 785.27 196.01 C 785.59 212.31 781.49 228.85 772.65 242.63 C 764.45 255.55 752.59 265.83 739.44 273.50 C 723.54 282.77 705.84 288.58 687.86 292.26 C 694.17 302.09 701.44 311.28 708.11 320.87 C 740.57 366.07 773.04 411.26 805.51 456.46 C 808.05 460.07 810.92 463.49 812.92 467.46 C 795.31 467.56 777.70 467.27 760.09 467.41 C 750.17 451.89 740.21 436.39 729.83 421.18 C 712.06 395.61 694.40 369.96 676.57 344.43 C 664.30 328.40 652.08 312.32 639.68 296.39 C 633.91 296.34 628.14 296.36 622.37 296.37 C 622.39 351.93 622.35 407.48 622.39 463.04 C 622.34 464.58 622.19 466.13 622.10 467.68 C 608.70 467.60 595.30 467.60 581.90 467.68 C 581.26 453.14 581.81 438.56 581.63 424.00 C 581.69 321.64 581.50 219.28 581.72 116.93 M 622.32 136.12 C 622.44 183.30 622.36 230.48 622.36 277.66 C 630.20 278.49 638.10 278.52 645.97 278.18 C 665.71 277.51 685.89 275.34 704.07 267.10 C 716.75 261.41 728.19 252.27 735.08 240.05 C 743.94 224.61 745.46 206.02 743.24 188.65 C 741.32 173.77 734.22 159.08 721.73 150.29 C 705.95 139.03 685.90 136.57 667.02 136.04 C 652.12 136.02 637.21 135.87 622.32 136.12 Z" />
<path fill="#14191c" opacity="1.00" d=" M 1365.33 117.08 C 1389.21 116.59 1413.11 117.01 1437.00 116.87 C 1471.33 116.87 1505.66 116.87 1540.00 116.87 C 1561.22 117.01 1582.46 116.59 1603.67 117.08 C 1603.59 124.57 1603.67 132.06 1603.62 139.56 C 1571.45 139.57 1539.28 139.32 1507.12 139.68 C 1507.14 247.46 1507.11 355.24 1507.14 463.02 C 1507.10 464.90 1507.01 466.79 1506.92 468.67 C 1493.40 468.58 1479.88 468.66 1466.37 468.63 C 1466.31 358.96 1466.48 249.29 1466.28 139.62 C 1432.65 139.39 1399.02 139.54 1365.39 139.55 C 1365.32 132.06 1365.41 124.57 1365.33 117.08 Z" />
<path fill="#14191c" opacity="1.00" d=" M 2155.95 116.95 C 2210.54 116.87 2265.14 116.72 2319.74 117.02 C 2319.76 125.01 2319.77 132.99 2319.73 140.98 C 2278.75 141.35 2237.75 140.99 2196.77 141.16 C 2196.44 164.10 2196.72 187.05 2196.63 210.00 C 2196.80 229.88 2196.29 249.78 2196.88 269.65 C 2234.31 269.68 2271.74 269.49 2309.17 269.73 C 2309.32 277.21 2309.32 284.69 2309.17 292.17 C 2271.72 292.38 2234.27 292.18 2196.82 292.26 C 2196.38 301.17 2196.73 310.09 2196.63 319.00 C 2196.72 359.95 2196.45 400.90 2196.76 441.84 C 2238.84 441.92 2280.92 441.84 2323.00 441.88 L 2323.00 466.13 C 2267.31 466.08 2211.63 466.23 2155.95 466.05 C 2155.76 455.37 2155.92 444.68 2155.87 434.00 C 2155.92 328.32 2155.77 222.63 2155.95 116.95 Z" />
<path fill="#14191c" opacity="1.00" d=" M 1358.15 547.19 C 1368.40 544.25 1379.37 546.12 1389.03 550.21 C 1389.36 554.32 1389.39 558.46 1389.07 562.57 C 1384.95 559.09 1381.11 555.04 1376.00 553.02 C 1369.46 550.21 1361.38 550.34 1355.32 554.27 C 1346.22 560.46 1345.03 575.36 1353.13 582.87 C 1358.85 588.23 1366.66 590.23 1373.66 593.35 C 1381.87 596.60 1390.93 600.76 1394.66 609.38 C 1400.66 623.77 1395.03 642.43 1381.33 650.31 C 1368.33 657.69 1351.72 657.09 1338.73 649.98 C 1338.56 645.59 1338.48 641.19 1338.81 636.82 C 1342.81 640.67 1346.79 644.78 1351.97 647.04 C 1359.32 650.46 1368.42 650.49 1375.56 646.49 C 1387.02 639.98 1389.03 621.67 1378.99 613.04 C 1373.29 608.13 1365.95 605.94 1359.29 602.74 C 1352.77 599.67 1345.28 597.17 1341.11 590.88 C 1336.15 583.17 1335.77 573.12 1338.60 564.58 C 1341.49 555.84 1349.41 549.50 1358.15 547.19 Z" />
<path fill="#14191c" opacity="1.00" d=" M 1036.00 547.65 C 1036.76 547.64 1038.27 547.62 1039.02 547.62 C 1046.04 564.87 1052.48 582.37 1059.28 599.72 C 1066.32 618.35 1073.89 636.78 1080.60 655.53 C 1076.02 655.83 1071.44 655.80 1066.87 655.65 C 1061.56 641.88 1056.99 627.84 1051.82 614.02 C 1040.51 613.70 1029.20 613.92 1017.90 613.89 C 1012.23 627.79 1007.63 642.10 1001.98 656.00 L 992.44 656.00 C 999.82 636.97 1007.62 618.11 1015.17 599.15 C 1022.16 582.00 1028.80 564.71 1036.00 547.65 M 1020.15 607.16 C 1029.82 607.30 1039.51 607.34 1049.18 607.14 C 1044.62 594.24 1039.77 581.43 1034.74 568.71 C 1029.42 581.33 1025.01 594.34 1020.15 607.16 Z" />
<path fill="#14191c" opacity="1.00" d=" M 897.52 550.00 C 908.03 550.02 918.53 549.94 929.03 550.03 C 938.08 550.31 948.03 552.66 954.01 559.99 C 961.23 569.37 959.69 584.10 951.22 592.22 C 945.17 598.10 936.98 601.28 928.80 602.77 C 922.42 603.81 915.94 603.88 909.50 604.19 C 909.68 621.32 909.66 638.46 909.52 655.59 C 905.51 655.81 901.49 655.81 897.48 655.60 C 897.36 620.40 897.28 585.19 897.52 550.00 M 909.73 555.82 C 909.57 569.97 909.55 584.12 909.73 598.27 C 918.83 598.70 928.60 598.40 936.69 593.70 C 942.56 590.35 945.98 583.72 946.09 577.05 C 946.59 570.25 944.23 562.50 937.85 559.11 C 929.23 554.58 919.10 555.93 909.73 555.82 Z" />
<path fill="#14191c" opacity="1.00" d=" M 1141.34 550.12 C 1151.22 549.85 1161.12 550.05 1171.01 549.99 C 1179.83 550.04 1189.39 551.70 1196.09 557.91 C 1205.46 566.84 1204.37 583.49 1195.23 592.22 C 1189.42 598.12 1181.34 600.68 1173.60 602.93 C 1181.19 614.08 1189.31 624.87 1197.10 635.88 C 1201.62 642.45 1206.72 648.63 1210.80 655.51 C 1205.55 655.90 1200.30 655.61 1195.06 655.54 C 1184.04 638.58 1172.71 621.78 1160.23 605.86 C 1158.89 603.49 1156.01 604.11 1153.76 603.82 C 1153.45 621.21 1153.72 638.61 1153.63 656.00 L 1141.42 656.00 C 1141.29 620.71 1141.44 585.41 1141.34 550.12 M 1153.73 555.82 C 1153.57 569.97 1153.55 584.13 1153.73 598.28 C 1163.48 598.72 1174.23 598.40 1182.47 592.50 C 1189.97 587.06 1191.58 576.48 1189.03 568.05 C 1187.50 562.73 1182.89 558.75 1177.63 557.33 C 1169.87 555.13 1161.69 555.81 1153.73 555.82 Z" />
<path fill="#14191c" opacity="1.00" d=" M 1267.73 549.71 C 1271.76 549.57 1275.80 549.57 1279.85 549.74 C 1279.88 585.16 1279.92 620.58 1279.83 656.00 L 1267.68 656.00 C 1267.62 620.57 1267.52 585.14 1267.73 549.71 Z" />
</g>
</svg>
