<?xml version="1.0" encoding="UTF-8" ?>
<!DOCTYPE svg PUBLIC "-//W3C//DTD SVG 1.1//EN" "http://www.w3.org/Graphics/SVG/1.1/DTD/svg11.dtd">
<svg width="1619pt" height="457pt" viewBox="0 0 1619 457" version="1.1" xmlns="http://www.w3.org/2000/svg">
<g id="#ffffffff">
<path fill="#ffffff" opacity="1.00" d=" M 0.00 0.00 L 34.75 0.00 C 34.78 50.79 34.71 101.57 34.79 152.36 C 39.22 150.56 41.89 146.39 45.07 143.05 C 87.59 95.38 129.98 47.59 172.60 0.00 L 208.88 0.00 C 161.11 48.79 113.33 97.57 65.42 146.23 C 114.41 206.33 163.47 266.38 212.44 326.50 C 197.00 326.51 181.55 326.49 166.11 326.51 C 123.97 272.41 81.89 218.28 39.78 164.17 C 38.48 162.34 36.72 160.93 34.79 159.81 C 34.70 215.37 34.78 270.94 34.75 326.50 C 23.17 326.51 11.58 326.50 0.00 326.50 L 0.00 0.00 Z" />
<path fill="#ffffff" opacity="1.00" d=" M 322.90 1.92 C 327.04 -0.40 332.71 0.60 335.84 4.17 C 340.74 9.55 340.43 18.93 334.24 23.23 C 317.04 35.35 299.66 47.22 282.40 59.26 C 278.55 62.93 272.86 60.60 268.14 61.24 C 281.66 46.08 295.30 31.03 308.88 15.91 C 313.47 11.18 317.56 5.87 322.90 1.92 Z" />
<path fill="#ffffff" opacity="1.00" d=" M 678.41 76.08 C 680.99 75.97 683.58 75.98 686.18 76.00 C 718.30 159.35 750.53 242.65 782.63 326.00 C 771.72 326.00 760.83 326.00 749.93 326.00 C 738.42 293.84 726.99 261.65 715.43 229.50 C 689.12 229.49 662.81 229.52 636.50 229.49 C 624.52 261.64 612.65 293.83 600.70 325.99 C 593.13 326.01 585.55 325.99 577.98 326.00 C 611.51 242.72 645.02 159.42 678.41 76.08 M 675.74 123.45 C 664.46 153.72 653.14 183.99 641.82 214.25 C 664.51 214.23 687.20 214.28 709.89 214.22 C 698.48 183.97 687.13 153.71 675.74 123.45 Z" />
<path fill="#ffffff" opacity="1.00" d=" M 1204.29 76.01 C 1206.83 76.00 1209.37 76.00 1211.93 76.00 C 1244.05 159.34 1276.30 242.63 1308.38 325.98 C 1297.50 326.02 1286.62 325.99 1275.75 326.00 C 1264.20 293.86 1252.73 261.68 1241.27 229.51 C 1214.93 229.49 1188.59 229.52 1162.25 229.49 C 1150.35 261.65 1138.38 293.79 1126.54 325.97 C 1118.98 326.04 1111.42 325.98 1103.87 326.00 C 1137.32 242.66 1170.82 159.34 1204.29 76.01 M 1167.63 214.23 C 1190.29 214.26 1212.96 214.27 1235.63 214.22 C 1224.34 183.94 1212.79 153.75 1201.56 123.45 C 1190.17 153.68 1178.91 183.96 1167.63 214.23 Z" />
<path fill="#ffffff" opacity="1.00" d=" M 1352.06 91.06 C 1368.35 79.18 1389.28 74.99 1409.13 76.67 C 1422.57 77.85 1435.77 81.50 1448.00 87.17 C 1448.00 97.19 1447.99 107.21 1448.00 117.23 C 1436.50 103.18 1420.67 91.27 1402.20 89.05 C 1388.82 87.69 1374.06 90.50 1364.17 100.20 C 1353.10 111.37 1349.34 128.70 1353.14 143.76 C 1355.45 152.79 1361.22 160.73 1368.65 166.29 C 1379.04 174.18 1391.58 178.32 1403.47 183.35 C 1418.67 189.87 1434.98 195.18 1447.54 206.38 C 1456.22 213.71 1461.90 224.17 1464.35 235.18 C 1468.07 253.26 1465.76 272.69 1457.41 289.21 C 1450.09 304.19 1437.24 316.26 1422.01 322.96 C 1403.66 331.10 1382.85 332.26 1363.19 329.36 C 1351.80 327.54 1340.67 323.81 1330.72 317.92 C 1330.79 307.47 1330.70 297.01 1330.77 286.56 C 1342.46 300.74 1357.97 312.89 1376.43 316.27 C 1393.96 319.41 1413.96 315.54 1426.44 302.09 C 1435.20 292.69 1439.43 279.67 1439.26 266.94 C 1439.14 257.69 1436.92 248.23 1431.54 240.58 C 1425.40 231.80 1416.20 225.74 1406.67 221.20 C 1390.55 213.52 1373.89 207.00 1357.94 198.95 C 1348.65 194.27 1339.91 187.68 1334.75 178.47 C 1326.23 163.25 1324.71 144.78 1328.30 127.91 C 1331.33 113.25 1339.90 99.82 1352.06 91.06 Z" />
<path fill="#ffffff" opacity="1.00" d=" M 818.93 96.88 C 832.63 84.08 851.56 78.07 870.06 77.50 C 887.41 76.92 904.70 81.04 920.47 88.16 C 920.54 98.17 920.49 108.18 920.49 118.19 C 909.37 104.90 894.63 93.39 877.14 90.48 C 863.89 88.56 849.16 90.75 838.66 99.59 C 821.78 114.34 819.14 143.06 833.71 160.30 C 844.66 173.20 861.44 178.27 876.50 184.65 C 891.65 191.15 907.90 196.43 920.35 207.69 C 930.10 215.93 935.83 228.13 937.71 240.61 C 940.87 262.33 935.73 285.62 921.95 302.95 C 910.97 317.08 894.39 326.22 876.98 329.68 C 852.23 334.48 825.33 331.83 803.25 319.11 C 803.27 308.61 803.20 298.10 803.28 287.60 C 812.42 298.68 823.64 308.46 837.09 313.88 C 851.68 319.91 868.63 319.97 883.28 314.08 C 896.29 308.81 906.27 297.06 909.79 283.52 C 913.34 270.15 912.39 255.00 904.96 243.08 C 898.81 233.14 888.54 226.80 878.28 221.78 C 865.41 215.89 852.37 210.39 839.53 204.44 C 828.83 199.50 817.74 194.02 810.47 184.38 C 800.95 171.48 798.04 154.68 799.34 138.97 C 800.49 123.21 807.13 107.61 818.93 96.88 Z" />
<path fill="#ffffff" opacity="1.00" d=" M 239.75 81.50 C 277.83 81.49 315.92 81.50 354.00 81.50 C 353.99 87.17 354.01 92.84 353.99 98.51 C 325.41 98.50 296.83 98.50 268.25 98.50 C 268.24 128.33 268.26 158.16 268.25 187.99 C 294.42 188.01 320.59 187.99 346.76 188.01 C 346.75 193.25 346.76 198.50 346.75 203.75 C 320.58 203.76 294.42 203.75 268.25 203.76 C 268.25 238.50 268.26 273.25 268.25 307.99 C 297.50 308.01 326.75 307.99 356.00 308.00 C 356.00 313.67 356.00 319.33 356.00 325.00 C 317.25 325.00 278.50 325.00 239.75 325.00 C 239.75 243.83 239.75 162.67 239.75 81.50 Z" />
<path fill="#ffffff" opacity="1.00" d=" M 405.50 81.50 C 427.67 81.50 449.84 81.50 472.01 81.50 C 488.35 81.20 505.16 83.46 519.87 90.93 C 531.94 97.01 541.80 107.87 545.36 121.05 C 549.20 135.09 548.04 150.58 541.76 163.76 C 536.12 175.45 526.24 184.63 515.07 191.01 C 504.10 197.35 491.90 201.32 479.52 203.82 C 508.75 244.57 538.02 285.28 567.29 326.00 C 554.80 325.99 542.31 326.01 529.82 326.00 C 517.71 306.70 504.82 287.92 491.74 269.26 C 482.78 256.57 474.38 243.47 464.74 231.27 C 458.46 223.09 452.22 214.87 445.88 206.74 C 441.92 206.77 437.96 206.75 434.00 206.75 C 433.99 246.50 434.00 286.25 434.00 326.00 C 424.50 326.00 415.00 326.01 405.49 325.99 C 405.50 244.49 405.49 163.00 405.50 81.50 M 434.00 94.75 C 434.00 127.66 434.00 160.56 434.00 193.46 C 439.62 194.08 445.29 194.17 450.93 193.79 C 465.79 193.30 481.12 191.41 494.42 184.28 C 505.54 178.56 514.02 168.04 516.93 155.84 C 519.89 142.89 519.48 128.54 513.28 116.57 C 507.77 105.76 496.30 99.49 484.79 97.08 C 468.10 93.61 450.93 95.10 434.00 94.75 Z" />
<path fill="#ffffff" opacity="1.00" d=" M 951.75 81.50 C 1007.17 81.49 1062.58 81.50 1118.00 81.50 C 1117.99 86.75 1118.00 92.00 1118.00 97.25 C 1095.58 97.26 1073.17 97.24 1050.75 97.26 C 1050.75 173.75 1050.76 250.25 1050.75 326.75 C 1041.25 326.75 1031.75 326.75 1022.25 326.75 C 1022.24 250.25 1022.26 173.75 1022.24 97.25 C 998.74 97.25 975.25 97.26 951.75 97.25 C 951.74 92.00 951.75 86.75 951.75 81.50 Z" />
<path fill="#ffffff" opacity="1.00" d=" M 1502.75 81.50 C 1540.92 81.49 1579.08 81.49 1617.25 81.50 C 1617.25 87.17 1617.25 92.83 1617.25 98.50 C 1588.58 98.51 1559.92 98.49 1531.25 98.50 C 1531.25 128.33 1531.25 158.16 1531.25 187.99 C 1557.42 188.01 1583.59 187.99 1609.76 188.01 C 1609.74 193.25 1609.75 198.50 1609.75 203.75 C 1583.58 203.76 1557.42 203.75 1531.25 203.76 C 1531.24 238.50 1531.26 273.25 1531.25 307.99 C 1560.50 308.01 1589.75 308.00 1619.00 308.00 L 1619.00 325.00 C 1580.25 325.00 1541.50 325.00 1502.75 325.00 C 1502.75 243.83 1502.75 162.67 1502.75 81.50 Z" />
<path fill="#ffffff" opacity="1.00" d=" M 932.55 395.19 C 934.08 388.53 939.73 383.35 946.18 381.51 C 953.55 379.38 961.50 380.52 968.48 383.48 C 968.50 386.61 968.50 389.73 968.50 392.86 C 965.77 390.07 962.96 387.16 959.27 385.66 C 953.82 383.15 946.51 383.86 942.50 388.63 C 938.58 393.52 938.48 401.38 943.03 405.92 C 951.03 413.34 963.99 413.08 970.82 422.11 C 976.52 430.94 974.22 443.71 966.63 450.74 C 962.20 454.90 956.10 456.64 950.16 457.00 L 946.60 457.00 C 941.85 456.63 937.15 455.43 932.98 453.09 C 933.01 449.79 933.00 446.49 932.98 443.20 C 935.49 446.03 938.20 448.80 941.62 450.54 C 947.22 453.54 954.55 453.61 959.86 449.91 C 967.06 444.85 967.94 432.63 960.85 427.08 C 953.49 421.59 943.85 420.11 936.71 414.28 C 931.84 409.37 930.95 401.66 932.55 395.19 Z" />
<path fill="#ffffff" opacity="1.00" d=" M 691.77 457.00 C 701.83 431.90 711.93 406.82 722.01 381.73 C 722.64 381.75 723.91 381.78 724.55 381.79 C 734.24 406.86 743.85 431.96 753.62 457.00 L 743.52 457.00 C 740.01 447.35 736.61 437.66 733.14 428.00 C 725.27 428.00 717.41 427.99 709.55 428.01 C 705.96 437.67 702.43 447.36 698.79 457.00 L 691.77 457.00 M 721.28 396.30 C 718.05 405.33 714.49 414.23 711.29 423.26 C 717.98 423.22 724.67 423.28 731.37 423.23 C 728.06 414.23 724.59 405.29 721.28 396.30 Z" />
<path fill="#ffffff" opacity="1.00" d=" M 625.50 383.25 C 632.88 383.29 640.26 383.16 647.64 383.30 C 654.31 383.55 661.72 385.40 665.78 391.15 C 670.53 398.49 668.50 409.33 661.42 414.48 C 653.76 420.44 643.61 421.26 634.25 421.01 C 634.25 433.00 634.25 445.00 634.25 457.00 L 625.50 457.00 C 625.50 432.42 625.49 407.83 625.50 383.25 M 634.25 387.51 C 634.25 397.33 634.25 407.16 634.25 416.99 C 640.26 417.12 646.62 417.13 652.07 414.24 C 660.81 410.17 662.25 396.14 654.59 390.38 C 648.55 386.51 641.04 387.70 634.25 387.51 Z" />
<path fill="#ffffff" opacity="1.00" d=" M 795.50 383.25 C 802.64 383.27 809.77 383.20 816.91 383.27 C 823.16 383.47 829.98 384.73 834.49 389.43 C 840.28 395.78 839.53 406.59 833.58 412.59 C 829.51 416.90 823.72 418.98 818.08 420.27 C 826.95 432.47 835.67 444.79 844.53 457.00 L 833.05 457.00 C 824.93 444.75 816.74 432.53 807.63 420.99 C 806.50 420.99 805.37 421.00 804.25 421.01 C 804.25 433.01 804.25 445.00 804.25 457.00 L 795.50 457.00 C 795.50 432.42 795.49 407.83 795.50 383.25 M 804.25 416.99 C 810.54 417.12 817.27 417.15 822.89 413.88 C 830.52 409.61 831.81 397.78 826.06 391.52 C 820.12 386.26 811.54 387.76 804.26 387.50 C 804.23 397.33 804.26 407.16 804.25 416.99 Z" />
<path fill="#ffffff" opacity="1.00" d=" M 883.50 383.01 C 886.41 382.99 889.32 382.99 892.25 383.00 C 892.25 407.67 892.25 432.33 892.25 457.00 L 883.50 457.00 C 883.50 432.34 883.50 407.67 883.50 383.01 Z" />
</g>
</svg>
