<?xml version="1.0" encoding="UTF-8" ?>
<!DOCTYPE svg PUBLIC "-//W3C//DTD SVG 1.1//EN" "http://www.w3.org/Graphics/SVG/1.1/DTD/svg11.dtd">
<svg width="1850pt" height="725pt" viewBox="0 0 1850 725" version="1.1" xmlns="http://www.w3.org/2000/svg">
<g id="#ffffffff">
<path fill="#ffffff" opacity="1.00" d=" M 0.00 0.00 L 1850.00 0.00 L 1850.00 725.00 L 0.00 725.00 L 0.00 0.00 M 1644.67 43.65 C 1631.94 49.76 1625.36 65.77 1630.09 79.09 C 1633.16 88.65 1641.50 96.12 1651.25 98.42 C 1651.26 113.42 1651.24 128.42 1651.26 143.41 C 1641.58 144.17 1632.06 146.53 1623.15 150.37 C 1616.13 137.12 1609.04 123.91 1602.06 110.64 C 1606.31 106.74 1609.58 101.72 1611.01 96.10 C 1614.83 82.81 1607.69 67.56 1595.05 61.98 C 1582.65 55.96 1566.44 60.26 1558.72 71.68 C 1550.12 83.39 1552.23 101.25 1563.35 110.61 C 1570.53 117.04 1580.89 119.30 1590.19 116.97 C 1597.22 130.21 1604.26 143.42 1611.29 156.66 C 1603.16 161.92 1595.89 168.46 1589.81 176.01 C 1577.41 167.59 1564.96 159.24 1552.55 150.85 C 1556.77 139.73 1553.57 126.24 1544.50 118.46 C 1534.26 109.05 1517.25 108.71 1506.62 117.66 C 1495.95 126.01 1492.64 142.08 1499.10 153.98 C 1504.22 164.16 1515.74 170.56 1527.08 169.66 C 1533.73 169.27 1540.08 166.40 1545.05 162.00 C 1557.47 170.37 1569.90 178.74 1582.32 187.14 C 1568.32 211.58 1567.32 242.89 1579.85 268.13 C 1588.89 286.78 1604.87 301.93 1623.96 309.97 C 1641.46 317.44 1661.43 318.85 1679.83 314.05 C 1694.93 310.14 1708.93 302.04 1719.83 290.88 C 1734.00 276.58 1742.88 257.18 1744.42 237.10 C 1745.88 219.84 1742.00 202.20 1733.45 187.13 C 1745.90 178.78 1758.29 170.34 1770.75 162.01 C 1780.52 171.15 1796.57 172.35 1807.46 164.48 C 1819.94 156.21 1823.79 137.89 1815.78 125.27 C 1808.39 112.37 1790.59 107.29 1777.49 114.26 C 1764.30 120.53 1757.92 137.29 1763.22 150.84 C 1750.81 159.26 1738.37 167.63 1725.93 176.00 C 1719.89 168.45 1712.62 161.89 1704.47 156.68 C 1711.55 143.46 1718.52 130.18 1725.61 116.97 C 1737.04 119.98 1749.97 115.48 1756.81 105.80 C 1765.16 94.71 1763.96 77.74 1754.00 68.04 C 1744.67 58.13 1728.24 56.40 1717.01 64.06 C 1708.12 69.73 1702.91 80.53 1703.91 91.02 C 1704.43 98.56 1708.20 105.62 1713.74 110.70 C 1706.67 123.91 1699.68 137.16 1692.63 150.37 C 1683.75 146.53 1674.25 144.20 1664.61 143.41 C 1664.64 128.41 1664.61 113.41 1664.63 98.42 C 1670.03 96.94 1675.17 94.23 1679.05 90.12 C 1688.99 80.15 1689.89 62.87 1681.10 51.89 C 1672.95 40.92 1656.75 37.28 1644.67 43.65 M 48.50 191.75 C 48.50 354.13 48.51 516.50 48.50 678.88 C 55.75 678.88 63.00 678.88 70.25 678.88 C 70.23 605.90 70.28 532.93 70.22 459.96 C 70.40 458.73 69.81 457.10 71.00 456.24 C 77.86 450.04 84.78 443.90 91.68 437.76 C 174.21 518.12 256.77 598.44 339.34 678.75 C 349.12 678.74 358.90 678.71 368.68 678.88 C 341.01 651.71 313.28 624.61 285.60 597.44 C 255.97 568.74 226.95 539.42 197.68 510.35 C 167.58 480.17 137.28 450.19 107.20 420.00 C 183.87 343.86 260.65 267.83 337.39 191.77 C 329.00 191.55 320.61 191.46 312.22 191.37 C 231.51 269.27 150.94 347.30 70.19 425.17 C 69.81 422.12 69.40 419.07 69.49 416.00 C 69.60 341.25 69.32 266.50 69.62 191.75 C 62.58 191.75 55.54 191.75 48.50 191.75 M 935.00 191.62 C 934.70 308.07 934.53 424.53 934.34 540.99 C 933.63 557.57 928.40 573.61 921.65 588.66 C 917.05 599.65 910.70 609.90 902.76 618.81 C 880.10 644.34 847.58 660.22 813.95 664.87 C 803.03 666.11 792.08 667.57 781.07 667.15 C 733.56 666.04 686.76 641.49 660.04 602.00 C 655.55 594.89 650.88 587.77 648.10 579.78 C 644.11 568.55 642.10 556.73 640.20 545.01 C 640.02 531.34 640.17 517.67 640.12 504.00 C 640.21 400.29 639.97 296.59 640.00 192.88 C 633.37 192.79 626.75 193.07 620.12 193.00 C 620.12 307.65 620.13 422.31 620.12 536.96 C 619.73 557.52 624.18 578.22 633.32 596.66 C 639.69 608.83 646.88 620.67 656.14 630.89 C 689.47 668.27 740.09 688.96 789.99 687.08 C 808.25 686.18 826.57 683.85 844.04 678.27 C 872.95 669.19 899.92 652.82 919.82 629.79 C 929.27 618.98 936.46 606.40 942.46 593.41 C 954.58 564.98 955.99 533.49 956.13 503.01 C 955.31 485.68 955.47 468.32 955.33 450.98 C 954.88 364.57 955.29 278.16 955.38 191.75 C 948.58 191.85 941.79 191.55 935.00 191.62 M 1391.00 191.75 C 1390.98 336.57 1391.03 481.39 1390.98 626.21 C 1378.56 615.85 1369.04 602.63 1357.71 591.20 C 1267.91 497.68 1178.11 404.16 1088.31 310.65 C 1050.51 271.12 1011.92 232.36 973.76 193.18 C 973.70 355.12 974.02 517.06 974.00 679.00 C 981.70 679.00 989.41 679.00 997.12 679.00 C 997.12 536.01 997.13 393.03 997.12 250.04 C 997.23 249.26 997.47 247.70 997.59 246.92 C 1024.08 274.25 1050.28 301.86 1076.66 329.29 C 1131.32 386.31 1186.03 443.26 1240.30 500.65 C 1267.08 528.87 1293.95 557.00 1320.64 585.30 C 1349.35 615.97 1378.08 646.61 1406.78 677.28 C 1408.65 679.15 1410.23 682.01 1413.37 681.36 C 1413.44 518.16 1413.24 354.95 1413.50 191.75 C 1405.99 191.75 1398.50 191.75 1391.00 191.75 M 1430.50 191.75 C 1430.50 354.13 1430.50 516.50 1430.50 678.88 C 1503.67 678.88 1576.83 678.83 1650.00 679.00 C 1650.00 671.66 1650.00 664.33 1650.00 657.00 C 1584.25 657.06 1518.50 657.22 1452.75 657.37 C 1452.75 580.21 1452.75 503.05 1452.75 425.88 C 1518.50 425.79 1584.25 426.00 1650.00 426.00 C 1649.99 418.08 1650.00 410.16 1650.00 402.25 C 1584.25 402.20 1518.50 402.05 1452.75 401.88 C 1452.75 338.46 1452.75 275.04 1452.75 211.62 C 1485.29 211.62 1517.84 211.63 1550.38 211.62 C 1550.44 205.00 1550.14 198.38 1550.25 191.75 C 1510.33 191.75 1470.42 191.76 1430.50 191.75 M 379.62 193.38 C 379.66 245.59 379.52 297.81 379.75 350.02 C 379.68 459.64 379.84 569.26 379.88 678.87 C 453.76 678.88 527.64 678.88 601.52 678.88 C 601.35 672.00 601.36 665.13 601.38 658.25 C 534.92 658.25 468.46 658.25 402.00 658.25 C 402.00 580.83 402.00 503.42 402.00 426.00 C 468.46 425.94 534.92 426.22 601.38 426.12 C 601.37 418.16 601.38 410.21 601.38 402.25 C 534.92 402.25 468.46 402.25 402.00 402.25 C 401.87 339.67 401.71 277.09 401.62 214.50 C 468.12 214.48 534.62 214.30 601.12 214.38 C 601.12 207.33 601.12 200.29 601.12 193.25 C 527.29 193.29 453.45 193.14 379.62 193.38 Z" />
<path fill="#ffffff" opacity="1.00" d=" M 1653.36 54.57 C 1662.07 51.64 1672.21 58.01 1673.55 67.05 C 1675.23 75.31 1669.17 84.00 1660.91 85.43 C 1652.70 87.25 1643.90 81.32 1642.33 73.11 C 1640.46 65.28 1645.63 56.71 1653.36 54.57 Z" />
<path fill="#ffffff" opacity="1.00" d=" M 1577.36 73.58 C 1585.92 70.19 1596.35 76.03 1598.19 84.98 C 1600.50 93.70 1593.84 103.25 1584.95 104.32 C 1577.01 105.65 1568.78 99.91 1567.17 92.06 C 1565.24 84.47 1569.99 76.07 1577.36 73.58 Z" />
<path fill="#ffffff" opacity="1.00" d=" M 1729.32 73.11 C 1737.36 70.87 1746.41 76.31 1748.42 84.37 C 1750.97 92.63 1745.33 102.11 1736.94 103.99 C 1728.55 106.38 1719.14 100.37 1717.53 91.86 C 1715.58 83.75 1721.22 74.94 1729.32 73.11 Z" />
<path fill="#ffffff" opacity="1.00" d=" M 1519.31 125.61 C 1527.51 122.09 1537.83 127.15 1540.26 135.68 C 1543.20 144.02 1537.55 153.89 1528.99 155.84 C 1521.13 158.10 1512.25 153.02 1509.94 145.24 C 1507.26 137.55 1511.71 128.41 1519.31 125.61 Z" />
<path fill="#ffffff" opacity="1.00" d=" M 1786.23 125.16 C 1795.07 122.22 1805.26 128.87 1806.43 138.04 C 1808.12 147.22 1800.20 156.42 1790.93 156.36 C 1782.94 156.60 1775.51 150.03 1774.86 142.05 C 1773.94 134.64 1779.06 127.15 1786.23 125.16 Z" />
<path fill="#ffffff" opacity="1.00" d=" M 1644.49 161.74 C 1661.67 158.34 1680.10 161.69 1694.90 171.12 C 1709.60 180.35 1720.69 195.24 1725.10 212.06 C 1729.71 229.01 1727.51 247.69 1719.08 263.11 C 1710.81 278.41 1696.63 290.43 1680.13 295.94 C 1662.98 301.78 1643.56 300.56 1627.33 292.51 C 1610.97 284.53 1597.99 269.91 1592.12 252.67 C 1585.51 233.77 1587.64 212.04 1597.89 194.83 C 1607.78 177.84 1625.16 165.43 1644.49 161.74 Z" />
</g>
<g id="#000000ff">
<path fill="#000000" opacity="1.00" d=" M 1644.67 43.65 C 1656.75 37.28 1672.95 40.92 1681.10 51.89 C 1689.89 62.87 1688.99 80.15 1679.05 90.12 C 1675.17 94.23 1670.03 96.94 1664.63 98.42 C 1664.61 113.41 1664.64 128.41 1664.61 143.41 C 1674.25 144.20 1683.75 146.53 1692.63 150.37 C 1699.68 137.16 1706.67 123.91 1713.74 110.70 C 1708.20 105.62 1704.43 98.56 1703.91 91.02 C 1702.91 80.53 1708.12 69.73 1717.01 64.06 C 1728.24 56.40 1744.67 58.13 1754.00 68.04 C 1763.96 77.74 1765.16 94.71 1756.81 105.80 C 1749.97 115.48 1737.04 119.98 1725.61 116.97 C 1718.52 130.18 1711.55 143.46 1704.47 156.68 C 1712.62 161.89 1719.89 168.45 1725.93 176.00 C 1738.37 167.63 1750.81 159.26 1763.22 150.84 C 1757.92 137.29 1764.30 120.53 1777.49 114.26 C 1790.59 107.29 1808.39 112.37 1815.78 125.27 C 1823.79 137.89 1819.94 156.21 1807.46 164.48 C 1796.57 172.35 1780.52 171.15 1770.75 162.01 C 1758.29 170.34 1745.90 178.78 1733.45 187.13 C 1742.00 202.20 1745.88 219.84 1744.42 237.10 C 1742.88 257.18 1734.00 276.58 1719.83 290.88 C 1708.93 302.04 1694.93 310.14 1679.83 314.05 C 1661.43 318.85 1641.46 317.44 1623.96 309.97 C 1604.87 301.93 1588.89 286.78 1579.85 268.13 C 1567.32 242.89 1568.32 211.58 1582.32 187.14 C 1569.90 178.74 1557.47 170.37 1545.05 162.00 C 1540.08 166.40 1533.73 169.27 1527.08 169.66 C 1515.74 170.56 1504.22 164.16 1499.10 153.98 C 1492.64 142.08 1495.95 126.01 1506.62 117.66 C 1517.25 108.71 1534.26 109.05 1544.50 118.46 C 1553.57 126.24 1556.77 139.73 1552.55 150.85 C 1564.96 159.24 1577.41 167.59 1589.81 176.01 C 1595.89 168.46 1603.16 161.92 1611.29 156.66 C 1604.26 143.42 1597.22 130.21 1590.19 116.97 C 1580.89 119.30 1570.53 117.04 1563.35 110.61 C 1552.23 101.25 1550.12 83.39 1558.72 71.68 C 1566.44 60.26 1582.65 55.96 1595.05 61.98 C 1607.69 67.56 1614.83 82.81 1611.01 96.10 C 1609.58 101.72 1606.31 106.74 1602.06 110.64 C 1609.04 123.91 1616.13 137.12 1623.15 150.37 C 1632.06 146.53 1641.58 144.17 1651.26 143.41 C 1651.24 128.42 1651.26 113.42 1651.25 98.42 C 1641.50 96.12 1633.16 88.65 1630.09 79.09 C 1625.36 65.77 1631.94 49.76 1644.67 43.65 M 1653.36 54.57 C 1645.63 56.71 1640.46 65.28 1642.33 73.11 C 1643.90 81.32 1652.70 87.25 1660.91 85.43 C 1669.17 84.00 1675.23 75.31 1673.55 67.05 C 1672.21 58.01 1662.07 51.64 1653.36 54.57 M 1577.36 73.58 C 1569.99 76.07 1565.24 84.47 1567.17 92.06 C 1568.78 99.91 1577.01 105.65 1584.95 104.32 C 1593.84 103.25 1600.50 93.70 1598.19 84.98 C 1596.35 76.03 1585.92 70.19 1577.36 73.58 M 1729.32 73.11 C 1721.22 74.94 1715.58 83.75 1717.53 91.86 C 1719.14 100.37 1728.55 106.38 1736.94 103.99 C 1745.33 102.11 1750.97 92.63 1748.42 84.37 C 1746.41 76.31 1737.36 70.87 1729.32 73.11 M 1519.31 125.61 C 1511.71 128.41 1507.26 137.55 1509.94 145.24 C 1512.25 153.02 1521.13 158.10 1528.99 155.84 C 1537.55 153.89 1543.20 144.02 1540.26 135.68 C 1537.83 127.15 1527.51 122.09 1519.31 125.61 M 1786.23 125.16 C 1779.06 127.15 1773.94 134.64 1774.86 142.05 C 1775.51 150.03 1782.94 156.60 1790.93 156.36 C 1800.20 156.42 1808.12 147.22 1806.43 138.04 C 1805.26 128.87 1795.07 122.22 1786.23 125.16 M 1644.49 161.74 C 1625.16 165.43 1607.78 177.84 1597.89 194.83 C 1587.64 212.04 1585.51 233.77 1592.12 252.67 C 1597.99 269.91 1610.97 284.53 1627.33 292.51 C 1643.56 300.56 1662.98 301.78 1680.13 295.94 C 1696.63 290.43 1710.81 278.41 1719.08 263.11 C 1727.51 247.69 1729.71 229.01 1725.10 212.06 C 1720.69 195.24 1709.60 180.35 1694.90 171.12 C 1680.10 161.69 1661.67 158.34 1644.49 161.74 Z" />
<path fill="#000000" opacity="1.00" d=" M 48.50 191.75 C 55.54 191.75 62.58 191.75 69.62 191.75 C 69.32 266.50 69.60 341.25 69.49 416.00 C 69.40 419.07 69.81 422.12 70.19 425.17 C 150.94 347.30 231.51 269.27 312.22 191.37 C 320.61 191.46 329.00 191.55 337.39 191.77 C 260.65 267.83 183.87 343.86 107.20 420.00 C 137.28 450.19 167.58 480.17 197.68 510.35 C 226.95 539.42 255.97 568.74 285.60 597.44 C 313.28 624.61 341.01 651.71 368.68 678.88 C 358.90 678.71 349.12 678.74 339.34 678.75 C 256.77 598.44 174.21 518.12 91.68 437.76 C 84.78 443.90 77.86 450.04 71.00 456.24 C 69.81 457.10 70.40 458.73 70.22 459.96 C 70.28 532.93 70.23 605.90 70.25 678.88 C 63.00 678.88 55.75 678.88 48.50 678.88 C 48.51 516.50 48.50 354.13 48.50 191.75 Z" />
<path fill="#000000" opacity="1.00" d=" M 935.00 191.62 C 941.79 191.55 948.58 191.85 955.38 191.75 C 955.29 278.16 954.88 364.57 955.33 450.98 C 955.47 468.32 955.31 485.68 956.13 503.01 C 955.99 533.49 954.58 564.98 942.46 593.41 C 936.46 606.40 929.27 618.98 919.82 629.79 C 899.92 652.82 872.95 669.19 844.04 678.27 C 826.57 683.85 808.25 686.18 789.99 687.08 C 740.09 688.96 689.47 668.27 656.14 630.89 C 646.88 620.67 639.69 608.83 633.32 596.66 C 624.18 578.22 619.73 557.52 620.12 536.96 C 620.13 422.31 620.12 307.65 620.12 193.00 C 626.75 193.07 633.37 192.79 640.00 192.88 C 639.97 296.59 640.21 400.29 640.12 504.00 C 640.17 517.67 640.02 531.34 640.20 545.01 C 642.10 556.73 644.11 568.55 648.10 579.78 C 650.88 587.77 655.55 594.89 660.04 602.00 C 686.76 641.49 733.56 666.04 781.07 667.15 C 792.08 667.57 803.03 666.11 813.95 664.87 C 847.58 660.22 880.10 644.34 902.76 618.81 C 910.70 609.90 917.05 599.65 921.65 588.66 C 928.40 573.61 933.63 557.57 934.34 540.99 C 934.53 424.53 934.70 308.07 935.00 191.62 Z" />
<path fill="#000000" opacity="1.00" d=" M 1391.00 191.75 C 1398.50 191.75 1405.99 191.75 1413.50 191.75 C 1413.24 354.95 1413.44 518.16 1413.37 681.36 C 1410.23 682.01 1408.65 679.15 1406.78 677.28 C 1378.08 646.61 1349.35 615.97 1320.64 585.30 C 1293.95 557.00 1267.08 528.87 1240.30 500.65 C 1186.03 443.26 1131.32 386.31 1076.66 329.29 C 1050.28 301.86 1024.08 274.25 997.59 246.92 C 997.47 247.70 997.23 249.26 997.12 250.04 C 997.13 393.03 997.12 536.01 997.12 679.00 C 989.41 679.00 981.70 679.00 974.00 679.00 C 974.02 517.06 973.70 355.12 973.76 193.18 C 1011.92 232.36 1050.51 271.12 1088.31 310.65 C 1178.11 404.16 1267.91 497.68 1357.71 591.20 C 1369.04 602.63 1378.56 615.85 1390.98 626.21 C 1391.03 481.39 1390.98 336.57 1391.00 191.75 Z" />
<path fill="#000000" opacity="1.00" d=" M 1430.50 191.75 C 1470.42 191.76 1510.33 191.75 1550.25 191.75 C 1550.14 198.38 1550.44 205.00 1550.38 211.62 C 1517.84 211.63 1485.29 211.62 1452.75 211.62 C 1452.75 275.04 1452.75 338.46 1452.75 401.88 C 1518.50 402.05 1584.25 402.20 1650.00 402.25 C 1650.00 410.16 1649.99 418.08 1650.00 426.00 C 1584.25 426.00 1518.50 425.79 1452.75 425.88 C 1452.75 503.05 1452.75 580.21 1452.75 657.37 C 1518.50 657.22 1584.25 657.06 1650.00 657.00 C 1650.00 664.33 1650.00 671.66 1650.00 679.00 C 1576.83 678.83 1503.67 678.88 1430.50 678.88 C 1430.50 516.50 1430.50 354.13 1430.50 191.75 Z" />
<path fill="#000000" opacity="1.00" d=" M 379.62 193.38 C 453.45 193.14 527.29 193.29 601.12 193.25 C 601.12 200.29 601.12 207.33 601.12 214.38 C 534.62 214.30 468.12 214.48 401.62 214.50 C 401.71 277.09 401.87 339.67 402.00 402.25 C 468.46 402.25 534.92 402.25 601.38 402.25 C 601.38 410.21 601.37 418.16 601.38 426.12 C 534.92 426.22 468.46 425.94 402.00 426.00 C 402.00 503.42 402.00 580.83 402.00 658.25 C 468.46 658.25 534.92 658.25 601.38 658.25 C 601.36 665.13 601.35 672.00 601.52 678.88 C 527.64 678.88 453.76 678.88 379.88 678.87 C 379.84 569.26 379.68 459.64 379.75 350.02 C 379.52 297.81 379.66 245.59 379.62 193.38 Z" />
</g>
</svg>
