<?xml version="1.0" encoding="UTF-8" ?>
<!DOCTYPE svg PUBLIC "-//W3C//DTD SVG 1.1//EN" "http://www.w3.org/Graphics/SVG/1.1/DTD/svg11.dtd">
<svg width="1503pt" height="370pt" viewBox="0 0 1503 370" version="1.1" xmlns="http://www.w3.org/2000/svg">
<g id="#1a1819ff">
<path fill="#1a1819" opacity="1.00" d=" M 358.54 0.00 L 372.35 0.00 C 392.93 0.98 413.58 4.40 432.74 12.17 C 458.50 22.33 481.45 40.26 496.09 63.91 C 510.93 87.49 517.22 116.31 513.36 143.92 C 509.97 168.50 498.61 191.79 481.79 209.97 C 460.05 233.63 429.49 247.90 398.04 252.97 C 362.25 258.67 324.25 255.49 291.39 239.47 C 267.44 228.05 246.63 209.50 234.01 186.03 C 220.86 161.87 216.56 133.08 221.74 106.10 C 227.06 78.45 243.24 53.58 264.85 35.80 C 291.02 13.93 324.63 1.82 358.54 0.00 M 350.52 26.71 C 321.23 31.21 293.34 46.77 275.35 70.50 C 262.84 86.87 256.09 107.45 256.28 128.04 C 256.15 148.41 262.74 168.73 274.74 185.19 C 290.12 206.39 313.56 221.24 338.97 227.18 C 368.21 234.15 399.94 229.02 425.83 213.87 C 447.85 200.99 466.01 180.79 474.48 156.54 C 480.12 140.70 480.93 123.23 476.82 106.93 C 469.64 76.91 448.17 50.87 420.32 37.67 C 398.76 27.48 374.15 23.73 350.52 26.71 Z" />
<path fill="#1a1819" opacity="1.00" d=" M 0.00 35.94 C 10.02 35.96 20.04 35.95 30.07 35.94 C 30.00 96.28 30.13 156.61 30.00 216.95 L 31.03 216.94 C 86.03 216.97 141.03 216.87 196.03 216.99 C 196.06 224.29 196.21 231.59 196.08 238.90 C 130.72 238.87 65.36 238.93 0.00 238.87 L 0.00 35.94 Z" />
<path fill="#1a1819" opacity="1.00" d=" M 140.42 107.46 C 150.94 83.58 161.21 59.59 171.68 35.69 C 182.47 35.72 193.26 35.69 204.05 35.71 C 190.32 59.70 176.69 83.75 162.75 107.62 C 155.31 107.43 147.86 107.72 140.42 107.46 Z" />
<path fill="#1a1819" opacity="1.00" d=" M 541.01 35.89 C 591.47 35.93 641.92 35.80 692.37 35.96 C 709.99 37.34 728.29 43.11 740.76 56.20 C 751.35 67.20 755.37 83.09 754.40 98.03 C 753.70 110.00 748.33 121.47 740.15 130.17 C 729.61 141.50 715.57 149.11 700.92 153.74 C 722.34 182.31 744.26 210.53 765.96 238.91 C 753.11 238.79 740.25 239.05 727.41 238.78 C 705.54 210.30 683.25 182.15 661.24 153.78 C 631.20 153.18 601.14 153.67 571.09 153.53 C 570.99 182.04 570.84 210.57 571.17 239.07 C 561.07 238.54 550.95 239.24 540.86 238.71 C 541.20 227.46 540.89 216.20 541.00 204.95 C 541.01 148.60 540.98 92.24 541.01 35.89 M 571.14 59.42 C 570.84 82.86 571.01 106.31 571.05 129.75 C 607.37 129.89 643.69 129.74 680.00 129.83 C 681.76 129.84 683.51 129.50 685.23 129.07 C 694.73 128.24 704.51 125.24 711.57 118.56 C 716.22 114.25 719.18 108.32 720.34 102.12 C 722.13 92.67 720.95 82.09 714.82 74.36 C 708.84 66.73 699.38 62.77 690.08 61.01 C 682.22 59.32 674.15 60.08 666.19 59.90 C 662.17 59.17 658.08 59.54 654.02 59.48 C 626.40 59.44 598.77 59.56 571.14 59.42 Z" />
<path fill="#1a1819" opacity="1.00" d=" M 800.70 36.01 C 864.46 35.99 928.22 36.00 991.99 36.01 C 992.01 43.30 991.99 50.60 992.00 57.89 C 939.28 57.94 886.56 57.78 833.84 57.97 L 833.06 58.06 C 832.94 79.68 833.03 101.31 833.01 122.93 L 833.96 122.93 C 873.66 123.02 913.37 122.79 953.07 123.05 C 953.15 130.76 952.85 138.47 953.24 146.17 C 913.18 145.82 873.12 146.04 833.06 146.06 C 833.06 169.51 832.80 192.97 833.19 216.42 L 833.19 216.61 C 886.23 216.61 939.27 216.61 992.31 216.61 C 992.29 224.04 992.30 231.47 992.30 238.90 C 943.55 238.88 894.79 238.90 846.04 238.89 C 830.85 238.99 815.65 238.68 800.47 239.05 C 800.94 226.69 800.50 214.32 800.66 201.95 C 800.68 146.64 800.60 91.33 800.70 36.01 Z" />
<path fill="#1a1819" opacity="1.00" d=" M 1019.06 238.89 C 1056.32 171.20 1093.22 103.30 1130.56 35.65 C 1144.67 35.78 1158.78 35.65 1172.89 35.71 C 1209.58 103.45 1246.31 171.17 1283.02 238.89 C 1270.37 238.88 1257.72 238.89 1245.07 238.89 C 1235.73 221.57 1225.94 204.49 1216.79 187.07 C 1215.90 185.92 1214.37 186.09 1213.10 186.05 C 1170.61 186.28 1128.10 185.94 1085.61 186.25 L 1085.20 186.90 C 1075.87 204.23 1066.66 221.62 1057.29 238.92 C 1044.54 238.85 1031.80 238.91 1019.06 238.89 M 1151.31 64.45 C 1134.13 96.42 1116.95 128.39 1099.87 160.41 C 1134.07 160.45 1168.27 160.45 1202.48 160.41 C 1185.49 128.39 1168.47 96.37 1151.31 64.45 Z" />
<path fill="#1a1819" opacity="1.00" d=" M 1307.11 35.95 C 1317.09 35.96 1327.07 35.92 1337.05 35.95 C 1337.03 96.28 1337.07 156.60 1337.03 216.93 L 1337.93 216.93 C 1392.88 216.94 1447.82 216.95 1502.77 216.93 C 1502.80 224.26 1502.74 231.60 1502.81 238.93 C 1437.57 238.84 1372.33 238.89 1307.09 238.91 C 1307.13 171.25 1307.10 103.60 1307.11 35.95 Z" />
<path fill="#1a1819" opacity="1.00" d=" M 328.99 117.22 C 331.33 117.22 333.68 117.20 336.02 117.14 C 339.34 125.39 342.47 133.73 345.65 142.04 C 343.32 142.05 341.00 142.07 338.68 142.10 C 337.89 140.26 337.12 138.40 336.36 136.54 C 333.46 136.56 330.56 136.57 327.66 136.56 C 327.01 138.31 326.39 140.08 325.81 141.86 C 323.71 142.04 321.60 142.10 319.49 142.09 C 322.62 133.78 325.85 125.52 328.99 117.22 M 329.77 131.24 C 331.26 131.25 332.77 131.25 334.27 131.25 C 333.59 129.39 332.90 127.54 332.18 125.70 C 331.03 127.37 330.43 129.34 329.77 131.24 Z" />
<path fill="#1a1819" opacity="1.00" d=" M 395.44 117.21 C 397.68 117.20 399.93 117.20 402.19 117.20 C 402.18 125.47 402.18 133.74 402.19 142.01 C 399.93 142.07 397.67 142.06 395.41 141.96 C 395.46 133.71 395.41 125.46 395.44 117.21 Z" />
<path fill="#1a1819" opacity="1.00" d=" M 419.71 118.70 C 425.48 115.17 435.05 116.43 437.65 123.36 C 435.47 123.92 433.28 124.43 431.09 124.91 C 430.84 124.38 430.34 123.31 430.09 122.77 C 428.04 122.28 425.75 121.72 423.80 122.79 C 422.92 123.62 422.97 124.37 423.95 125.02 C 427.81 126.72 432.50 126.35 435.94 129.06 C 439.12 131.72 438.87 137.22 435.58 139.71 C 430.96 143.17 424.30 143.15 419.23 140.74 C 416.78 139.66 415.55 137.20 414.66 134.85 C 416.79 134.41 418.92 134.00 421.07 133.60 C 422.20 137.60 427.22 137.75 430.43 136.41 C 431.59 135.48 431.60 134.54 430.45 133.60 C 426.53 132.00 421.72 132.46 418.43 129.49 C 415.23 126.58 416.02 120.84 419.71 118.70 Z" />
<path fill="#1a1819" opacity="1.00" d=" M 289.95 117.90 C 295.30 117.74 300.65 117.71 306.00 117.95 C 310.65 119.52 312.62 125.83 309.41 129.62 C 306.16 133.66 300.50 133.00 295.89 133.09 C 295.89 136.08 295.88 139.07 295.89 142.06 C 293.89 142.06 291.89 142.05 289.89 142.05 C 289.78 134.00 289.65 125.95 289.95 117.90 M 296.00 122.60 C 296.00 124.19 296.00 125.78 296.00 127.38 C 298.60 127.02 303.44 128.66 304.05 124.97 C 303.19 121.46 298.62 122.99 296.00 122.60 Z" />
<path fill="#1a1819" opacity="1.00" d=" M 358.92 117.88 C 364.61 117.68 370.31 117.68 376.01 117.94 C 379.24 119.15 381.40 122.67 380.75 126.11 C 380.52 128.66 378.36 130.29 376.52 131.77 C 378.12 135.18 379.71 138.59 381.18 142.06 C 378.80 142.08 376.43 142.06 374.06 141.98 C 372.76 138.86 371.37 135.79 370.02 132.70 C 368.31 132.69 366.60 132.69 364.89 132.69 C 364.89 135.81 364.89 138.94 364.89 142.07 C 362.88 142.06 360.88 142.05 358.88 142.05 C 358.89 133.99 358.62 125.93 358.92 117.88 M 365.00 122.50 C 365.00 124.08 365.00 125.66 365.01 127.25 C 367.31 127.23 369.65 127.41 371.95 127.04 C 373.83 126.86 374.71 124.03 372.90 123.14 C 370.41 122.09 367.62 122.61 365.00 122.50 Z" />
<path fill="#1a1819" opacity="1.00" d=" M 0.96 274.93 C 501.28 274.94 1001.61 274.95 1501.93 274.93 C 1501.54 306.25 1501.91 337.59 1501.73 368.92 C 1408.17 369.24 1314.60 368.95 1221.03 369.05 C 842.36 369.05 463.68 369.04 85.01 369.05 C 57.03 368.94 29.03 369.26 1.05 368.88 C 0.81 337.57 1.04 306.25 0.96 274.93 M 306.49 290.64 C 298.12 292.42 289.94 296.79 285.04 303.98 C 278.70 313.09 277.86 325.35 281.54 335.66 C 284.71 344.41 292.30 351.08 301.01 354.04 C 309.60 357.09 319.00 357.36 327.95 355.94 C 337.69 354.29 347.28 349.07 352.31 340.30 C 359.86 327.08 357.81 308.26 345.85 298.28 C 335.01 289.35 319.82 288.14 306.49 290.64 M 646.84 291.81 C 640.99 293.29 634.70 296.02 631.79 301.64 C 628.93 306.97 630.42 314.18 635.35 317.77 C 644.22 324.58 655.95 325.26 665.69 330.32 C 668.58 331.84 671.56 334.45 671.40 338.03 C 671.10 342.43 666.86 345.04 663.07 346.28 C 653.22 349.59 642.63 347.24 632.87 344.77 C 632.38 347.69 631.91 350.62 631.46 353.55 C 639.47 355.49 647.73 356.65 655.99 356.14 C 663.91 355.65 672.20 354.49 679.00 350.12 C 683.73 347.18 686.76 341.61 686.15 336.01 C 685.99 331.07 682.64 326.91 678.62 324.36 C 670.34 318.97 660.33 317.55 651.43 313.57 C 648.73 312.23 645.52 310.41 645.16 307.10 C 644.94 303.22 648.69 300.62 652.06 299.77 C 661.18 297.26 670.76 298.92 679.77 301.08 C 680.40 298.21 681.07 295.35 681.78 292.50 C 670.34 290.10 658.31 289.11 646.84 291.81 M 752.46 291.62 C 746.55 293.04 740.20 295.55 736.95 301.03 C 733.70 306.38 735.04 314.01 740.13 317.75 C 749.27 324.77 761.45 325.28 771.35 330.78 C 774.22 332.39 776.95 335.53 776.05 339.06 C 775.16 343.11 771.05 345.29 767.42 346.44 C 757.69 349.47 747.33 347.27 737.76 344.74 C 737.20 347.67 736.71 350.61 736.23 353.56 C 744.30 355.48 752.61 356.66 760.93 356.13 C 769.72 355.53 779.29 354.24 786.22 348.28 C 792.64 342.76 792.62 331.51 785.92 326.20 C 777.22 319.13 765.62 317.91 755.70 313.30 C 753.19 312.02 750.13 310.21 750.06 307.03 C 749.78 303.05 753.70 300.61 757.07 299.69 C 766.17 297.30 775.65 298.96 784.63 301.05 C 785.24 298.20 785.88 295.35 786.54 292.50 C 775.39 290.10 763.68 289.21 752.46 291.62 M 939.07 290.16 C 929.04 291.68 919.05 296.88 913.84 305.87 C 908.21 315.61 907.97 328.19 912.74 338.33 C 917.10 347.49 926.37 353.46 936.10 355.52 C 944.93 357.35 954.28 357.25 962.97 354.75 C 971.80 352.23 979.90 346.23 983.69 337.70 C 989.55 324.71 987.13 307.51 975.79 298.21 C 965.68 289.83 951.65 288.43 939.07 290.16 M 37.35 291.05 C 37.45 312.43 37.06 333.82 37.55 355.18 C 39.10 356.38 41.17 355.88 42.97 356.04 C 45.46 355.86 48.19 356.49 50.44 355.17 C 50.74 346.12 50.55 337.06 50.57 328.00 C 63.18 327.74 75.85 328.53 88.42 327.59 C 95.10 327.00 102.09 324.76 106.74 319.71 C 112.40 313.62 111.70 303.04 105.58 297.51 C 102.19 294.44 97.75 292.60 93.25 291.97 C 90.30 290.82 87.10 290.98 84.00 290.98 C 68.45 291.06 52.90 290.91 37.35 291.05 M 158.00 290.96 C 157.95 312.37 158.10 333.78 157.92 355.19 C 162.32 355.40 166.72 355.36 171.12 355.16 C 171.09 346.14 171.13 337.12 171.09 328.09 C 179.10 328.11 187.10 328.13 195.10 328.08 C 203.86 337.01 212.33 346.21 221.06 355.17 C 226.30 355.21 231.54 355.25 236.79 355.15 C 228.23 345.85 219.28 336.93 210.77 327.59 C 216.41 326.71 222.32 325.48 226.84 321.74 C 234.39 315.99 234.40 302.92 226.73 297.28 C 219.94 292.22 211.11 291.34 202.91 291.13 C 188.20 290.97 173.48 291.11 158.76 291.06 L 158.00 290.96 M 399.89 291.07 C 399.88 312.43 399.90 333.80 399.88 355.17 C 404.20 355.48 408.53 355.25 412.86 355.43 C 413.18 345.37 412.92 335.30 412.99 325.24 C 427.96 324.93 442.96 325.20 457.94 325.11 C 457.98 322.58 457.94 320.04 457.74 317.52 L 458.41 317.45 C 443.29 317.05 428.14 317.47 413.01 317.28 C 413.00 311.17 412.99 305.07 413.01 298.96 C 427.33 299.06 441.66 298.95 455.98 299.02 C 457.84 299.03 459.70 298.87 461.53 298.56 C 461.44 296.06 461.42 293.57 461.42 291.07 C 440.91 291.05 420.40 291.06 399.89 291.07 M 515.32 291.08 C 515.46 311.71 515.20 332.34 515.39 352.97 C 515.52 353.54 515.78 354.68 515.91 355.25 L 515.48 355.93 C 538.58 355.88 561.70 356.33 584.79 355.74 C 584.84 353.02 585.76 350.04 584.36 347.53 C 566.37 347.25 548.39 347.43 530.40 347.38 C 529.09 346.95 528.17 345.49 528.60 344.10 C 528.65 338.48 528.90 332.85 528.43 327.25 C 529.03 326.67 529.65 326.14 530.31 325.63 C 531.85 325.90 533.40 326.03 534.97 326.04 C 548.62 325.93 562.27 326.08 575.92 325.96 C 576.04 323.33 576.04 320.69 575.94 318.05 C 560.12 317.92 544.30 318.04 528.49 318.00 C 528.83 311.65 528.62 305.30 528.71 298.95 C 546.80 298.67 564.89 298.83 582.98 298.83 C 583.01 296.22 583.01 293.60 583.00 291.00 C 560.44 291.05 537.88 290.89 515.32 291.08 M 844.06 296.92 C 844.28 316.49 843.84 336.06 844.29 355.61 C 848.90 355.73 853.54 355.93 858.16 355.50 L 857.42 355.20 C 857.86 333.84 857.46 312.46 857.63 291.09 C 853.33 290.99 849.02 291.21 844.73 290.89 C 843.80 292.76 844.11 294.91 844.06 296.92 M 1029.89 291.07 C 1029.89 312.45 1029.89 333.83 1029.89 355.20 C 1033.96 355.20 1038.03 355.20 1042.11 355.20 C 1042.10 338.43 1042.13 321.67 1042.10 304.91 C 1058.94 321.72 1075.92 338.41 1092.83 355.15 C 1097.13 355.13 1101.83 355.85 1105.92 354.93 C 1106.04 333.49 1106.09 312.02 1105.89 290.58 L 1105.37 291.25 C 1101.50 290.86 1097.62 291.25 1093.76 290.87 C 1092.74 292.74 1093.20 294.95 1093.10 296.98 C 1093.05 311.63 1093.08 326.28 1093.16 340.93 C 1076.44 324.31 1059.68 307.73 1043.02 291.05 C 1038.64 291.06 1034.26 291.05 1029.89 291.07 M 1160.37 291.09 C 1160.45 312.47 1160.31 333.86 1160.44 355.24 C 1164.46 355.18 1168.49 355.16 1172.53 355.28 C 1172.69 338.50 1172.59 321.72 1172.58 304.94 C 1189.38 321.62 1206.42 338.09 1222.97 355.02 C 1227.22 356.66 1232.17 355.34 1236.69 355.62 C 1237.14 336.09 1236.74 316.54 1236.93 297.00 C 1236.94 294.96 1236.97 292.87 1236.31 290.92 C 1232.27 291.17 1228.22 291.03 1224.19 291.07 C 1224.17 307.84 1224.20 324.61 1224.17 341.38 C 1207.40 324.61 1190.45 308.03 1173.80 291.16 C 1169.32 290.98 1164.84 291.07 1160.37 291.09 M 1291.00 291.00 C 1290.89 312.36 1291.22 333.73 1290.83 355.08 C 1291.69 356.52 1293.59 355.82 1294.98 356.04 C 1316.62 355.82 1338.27 356.25 1359.91 355.84 C 1360.00 353.38 1360.13 350.92 1360.19 348.46 C 1358.75 346.65 1355.99 347.70 1354.02 347.41 C 1337.73 347.56 1321.43 347.18 1305.15 347.62 C 1304.26 346.74 1303.52 345.54 1303.93 344.24 C 1304.10 338.16 1303.94 332.08 1304.01 326.00 C 1319.70 326.03 1335.40 325.93 1351.10 326.05 C 1351.35 323.35 1351.36 320.64 1351.10 317.94 C 1335.40 318.07 1319.70 317.97 1304.01 318.00 C 1303.98 312.22 1304.06 306.45 1303.90 300.68 C 1303.93 297.98 1307.17 298.63 1309.00 298.67 C 1325.50 298.76 1342.00 298.76 1358.51 298.66 C 1358.49 296.14 1358.51 293.63 1358.59 291.11 C 1336.06 290.84 1313.53 291.08 1291.00 291.00 M 1409.01 291.02 C 1408.86 312.37 1409.25 333.75 1408.82 355.09 C 1409.77 356.39 1411.55 355.85 1412.94 356.03 C 1430.62 355.98 1448.31 355.97 1465.99 356.03 C 1467.27 356.06 1468.47 355.76 1469.61 355.13 C 1469.49 352.67 1469.46 350.22 1469.42 347.76 C 1469.58 347.75 1469.88 347.73 1470.03 347.72 C 1454.03 347.19 1438.01 347.61 1422.00 347.50 C 1421.98 328.67 1422.02 309.84 1421.98 291.01 C 1417.65 290.99 1413.33 290.98 1409.01 291.02 Z" />
<path fill="#1a1819" opacity="1.00" d=" M 311.16 297.23 C 320.69 295.44 331.68 297.15 338.59 304.46 C 347.12 313.82 347.65 329.22 340.47 339.50 C 334.79 347.49 324.29 350.47 314.89 349.54 C 307.46 349.05 300.01 345.68 295.62 339.51 C 289.70 331.17 289.17 319.59 293.43 310.41 C 296.67 303.39 303.62 298.54 311.16 297.23 Z" />
<path fill="#1a1819" opacity="1.00" d=" M 942.06 297.07 C 950.03 295.82 958.78 296.83 965.45 301.66 C 979.01 311.65 978.84 335.20 965.02 344.89 C 958.08 349.63 949.11 350.54 941.01 348.98 C 933.97 347.65 927.41 343.35 924.03 336.95 C 919.09 327.56 919.52 315.31 925.76 306.62 C 929.50 301.30 935.75 298.13 942.06 297.07 Z" />
<path fill="#1a1819" opacity="1.00" d=" M 50.69 299.01 C 62.50 298.96 74.32 299.08 86.13 298.93 C 89.48 299.22 92.99 300.22 95.41 302.68 C 98.92 306.52 98.78 313.39 94.54 316.66 C 91.42 319.04 87.42 319.94 83.57 320.16 C 72.62 319.77 61.65 320.12 50.69 319.99 C 50.65 312.99 50.65 306.00 50.69 299.01 Z" />
<path fill="#1a1819" opacity="1.00" d=" M 171.11 298.68 C 181.06 298.75 191.02 298.65 200.97 298.73 C 206.01 298.95 211.43 299.29 215.77 302.17 C 220.67 305.36 220.83 313.57 216.00 316.89 C 211.96 319.71 206.85 320.24 202.06 320.39 C 191.74 320.42 181.42 320.35 171.11 320.42 C 171.11 313.17 171.11 305.93 171.11 298.68 Z" />
</g>
<g id="#14141453">
<path fill="#141414" opacity="0.33" d=" M 899.68 2.91 C 900.02 2.72 900.70 2.34 901.05 2.15 C 918.48 1.89 935.93 2.23 953.37 2.00 C 953.01 2.49 952.29 3.47 951.93 3.96 C 951.72 3.89 951.29 3.74 951.08 3.67 C 949.43 3.18 947.73 2.97 946.04 2.96 C 930.58 2.94 915.13 3.08 899.68 2.91 Z" />
</g>
<g id="#000000ff">
<path fill="#000000" opacity="1.00" d=" M 875.24 28.96 C 883.43 20.32 891.74 11.78 899.68 2.91 C 915.13 3.08 930.58 2.94 946.04 2.96 C 947.73 2.97 949.43 3.18 951.08 3.67 C 925.69 11.75 900.55 20.62 875.24 28.96 Z" />
</g>
<g id="#17161748">
<path fill="#171617" opacity="0.28" d=" M 0.00 35.17 C 10.24 35.14 20.48 34.99 30.72 35.26 C 31.18 95.82 30.58 156.39 31.03 216.94 L 30.00 216.95 C 30.13 156.61 30.00 96.28 30.07 35.94 C 20.04 35.95 10.02 35.96 0.00 35.94 L 0.00 35.17 Z" />
</g>
<g id="#17171736">
<path fill="#171717" opacity="0.21" d=" M 540.32 35.22 C 589.20 34.87 638.08 35.24 686.96 35.04 C 688.77 35.14 690.82 34.73 692.37 35.96 C 641.92 35.80 591.47 35.93 541.01 35.89 C 540.98 92.24 541.01 148.60 541.00 204.95 C 540.89 216.20 541.20 227.46 540.86 238.71 L 540.27 239.36 C 539.97 184.57 540.23 129.77 540.14 74.97 C 540.25 61.72 539.91 48.46 540.32 35.22 Z" />
</g>
<g id="#17161663">
<path fill="#171616" opacity="0.39" d=" M 800.27 35.52 C 827.53 35.47 854.78 35.50 882.03 35.51 C 905.01 34.99 928.00 35.34 950.99 35.24 C 964.87 35.34 978.76 35.05 992.65 35.38 C 992.91 42.88 992.68 50.38 992.79 57.88 L 992.00 57.89 C 991.99 50.60 992.01 43.30 991.99 36.01 C 928.22 36.00 864.46 35.99 800.70 36.01 C 800.60 91.33 800.68 146.64 800.66 201.95 C 800.50 214.32 800.94 226.69 800.47 239.05 C 800.00 236.73 800.01 234.35 800.07 231.99 C 800.27 166.50 799.87 101.01 800.27 35.52 Z" />
</g>
<g id="#17171747">
<path fill="#171717" opacity="0.28" d=" M 1307.08 35.10 C 1317.29 35.20 1327.52 34.99 1337.74 35.26 C 1338.11 95.82 1337.72 156.38 1337.93 216.93 L 1337.03 216.93 C 1337.07 156.60 1337.03 96.28 1337.05 35.95 C 1327.07 35.92 1317.09 35.96 1307.11 35.95 L 1307.08 35.10 Z" />
</g>
<g id="#1717172a">
<path fill="#171717" opacity="0.16" d=" M 833.06 58.06 L 833.84 57.97 C 834.09 79.62 833.93 101.28 833.96 122.93 L 833.01 122.93 C 833.03 101.31 832.94 79.68 833.06 58.06 Z" />
<path fill="#171717" opacity="0.16" d=" M 833.06 146.06 C 873.12 146.04 913.18 145.82 953.24 146.17 C 951.39 147.47 949.00 146.81 946.92 146.99 C 909.30 147.00 871.68 146.87 834.06 147.04 C 833.80 169.04 834.04 191.04 833.98 213.03 C 833.99 214.22 833.73 215.35 833.19 216.42 C 832.80 192.97 833.06 169.51 833.06 146.06 Z" />
</g>
<g id="#22212298">
<path fill="#222122" opacity="0.60" d=" M 571.14 59.42 C 598.77 59.56 626.40 59.44 654.02 59.48 C 658.08 59.54 662.17 59.17 666.19 59.90 C 634.59 60.13 602.98 59.93 571.37 60.00 C 571.35 83.00 571.35 106.00 571.37 129.00 C 609.33 129.05 647.28 128.91 685.23 129.07 C 683.51 129.50 681.76 129.84 680.00 129.83 C 643.69 129.74 607.37 129.89 571.05 129.75 C 571.01 106.31 570.84 82.86 571.14 59.42 Z" />
</g>
<g id="#232222bf">
<path fill="#232222" opacity="0.75" d=" M 289.04 117.06 C 294.68 117.34 300.54 116.14 306.00 117.95 C 300.65 117.71 295.30 117.74 289.95 117.90 C 289.65 125.95 289.78 134.00 289.89 142.05 L 289.00 142.12 C 289.06 133.76 288.98 125.41 289.04 117.06 Z" />
</g>
<g id="#232122be">
<path fill="#232122" opacity="0.75" d=" M 358.06 117.03 C 364.03 117.35 370.20 116.17 376.01 117.94 C 370.31 117.68 364.61 117.68 358.92 117.88 C 358.62 125.93 358.89 133.99 358.88 142.05 L 358.00 142.10 C 358.03 133.75 357.98 125.39 358.06 117.03 Z" />
</g>
<g id="#fefefeff">
<path fill="#fefefe" opacity="1.00" d=" M 296.00 122.60 C 298.62 122.99 303.19 121.46 304.05 124.97 C 303.44 128.66 298.60 127.02 296.00 127.38 C 296.00 125.78 296.00 124.19 296.00 122.60 Z" />
<path fill="#fefefe" opacity="1.00" d=" M 329.77 131.24 C 330.43 129.34 331.03 127.37 332.18 125.70 C 332.90 127.54 333.59 129.39 334.27 131.25 C 332.77 131.25 331.26 131.25 329.77 131.24 Z" />
</g>
<g id="#ffffffff">
<path fill="#ffffff" opacity="1.00" d=" M 365.00 122.50 C 367.62 122.61 370.41 122.09 372.90 123.14 C 374.71 124.03 373.83 126.86 371.95 127.04 C 369.65 127.41 367.31 127.23 365.01 127.25 C 365.00 125.66 365.00 124.08 365.00 122.50 Z" />
</g>
<g id="#1e1d1d88">
<path fill="#1e1d1d" opacity="0.53" d=" M 571.09 153.53 C 601.14 153.67 631.20 153.18 661.24 153.78 C 631.35 154.30 601.44 153.85 571.54 154.00 C 571.57 179.99 571.54 205.98 571.56 231.97 C 571.48 234.33 571.91 236.78 571.17 239.07 C 570.84 210.57 570.99 182.04 571.09 153.53 Z" />
</g>
<g id="#242223aa">
<path fill="#242223" opacity="0.67" d=" M 1085.61 186.25 C 1128.10 185.94 1170.61 186.28 1213.10 186.05 C 1214.37 186.09 1215.90 185.92 1216.79 187.07 C 1172.93 186.76 1129.06 187.07 1085.20 186.90 L 1085.61 186.25 Z" />
</g>
<g id="#242424aa">
<path fill="#242424" opacity="0.67" d=" M 196.03 216.99 L 196.90 217.05 C 197.11 224.33 196.85 231.61 196.97 238.90 L 196.08 238.90 C 196.21 231.59 196.06 224.29 196.03 216.99 Z" />
</g>
<g id="#171516e1">
<path fill="#171516" opacity="0.88" d=" M 0.00 274.93 L 0.96 274.93 C 1.04 306.25 0.81 337.57 1.05 368.88 C 29.03 369.26 57.03 368.94 85.01 369.05 C 463.68 369.04 842.36 369.05 1221.03 369.05 C 1314.60 368.95 1408.17 369.24 1501.73 368.92 C 1501.91 337.59 1501.54 306.25 1501.93 274.93 L 1503.00 274.93 L 1503.00 370.00 L 0.00 370.00 L 0.00 274.93 Z" />
</g>
<g id="#1717175d">
<path fill="#171717" opacity="0.36" d=" M 37.35 291.05 C 52.90 290.91 68.45 291.06 84.00 290.98 C 87.10 290.98 90.30 290.82 93.25 291.97 C 74.86 290.73 56.41 291.40 38.00 291.39 C 38.00 307.59 38.00 323.79 38.00 340.00 C 37.96 345.06 38.28 350.15 37.55 355.18 C 37.06 333.82 37.45 312.43 37.35 291.05 Z" />
</g>
<g id="#19191945">
<path fill="#191919" opacity="0.27" d=" M 158.00 290.96 L 158.76 291.06 C 158.68 312.36 158.63 333.67 158.78 354.98 C 162.89 354.95 167.01 354.97 171.12 355.16 C 166.72 355.36 162.32 355.40 157.92 355.19 C 158.10 333.78 157.95 312.37 158.00 290.96 Z" />
<path fill="#191919" opacity="0.27" d=" M 1105.37 291.25 L 1105.89 290.58 C 1106.09 312.02 1106.04 333.49 1105.92 354.93 C 1101.83 355.85 1097.13 355.13 1092.83 355.15 C 1096.96 354.98 1101.11 354.95 1105.26 354.96 C 1105.41 333.73 1105.17 312.48 1105.37 291.25 Z" />
</g>
<g id="#20202068">
<path fill="#202020" opacity="0.41" d=" M 515.32 291.08 C 537.88 290.89 560.44 291.05 583.00 291.00 C 583.01 293.60 583.01 296.22 582.98 298.83 C 564.89 298.83 546.80 298.67 528.71 298.95 C 528.62 305.30 528.83 311.65 528.49 318.00 C 544.30 318.04 560.12 317.92 575.94 318.05 C 576.04 320.69 576.04 323.33 575.92 325.96 C 562.27 326.08 548.62 325.93 534.97 326.04 C 533.40 326.03 531.85 325.90 530.31 325.63 C 529.65 326.14 529.03 326.67 528.43 327.25 C 528.90 332.85 528.65 338.48 528.60 344.10 C 528.17 345.49 529.09 346.95 530.40 347.38 C 548.39 347.43 566.37 347.25 584.36 347.53 C 566.00 348.60 547.55 347.05 529.21 348.43 C 528.65 347.89 528.10 347.34 527.57 346.78 C 528.54 339.38 527.76 331.90 528.03 324.47 C 533.62 325.50 539.33 325.03 544.99 325.13 C 555.01 325.06 565.03 325.29 575.05 325.01 C 575.04 323.00 575.04 320.99 575.05 318.99 C 559.52 318.67 544.00 319.02 528.48 318.82 C 527.67 311.89 528.09 304.92 527.99 297.97 C 546.08 298.13 564.18 298.17 582.27 298.03 C 582.61 295.82 582.70 293.59 582.61 291.36 C 563.43 291.23 544.25 291.41 525.08 291.32 C 522.01 291.20 518.94 291.27 515.93 291.85 C 515.90 312.99 516.06 334.12 515.91 355.25 C 515.78 354.68 515.52 353.54 515.39 352.97 C 515.20 332.34 515.46 311.71 515.32 291.08 Z" />
</g>
<g id="#242424b0">
<path fill="#242424" opacity="0.69" d=" M 844.06 296.92 C 844.11 294.91 843.80 292.76 844.73 290.89 C 845.18 312.25 844.82 333.63 844.91 354.99 C 849.08 355.08 853.26 354.76 857.42 355.20 L 858.16 355.50 C 853.54 355.93 848.90 355.73 844.29 355.61 C 843.84 336.06 844.28 316.49 844.06 296.92 Z" />
</g>
<g id="#242324aa">
<path fill="#242324" opacity="0.67" d=" M 1093.10 296.98 C 1093.20 294.95 1092.74 292.74 1093.76 290.87 C 1094.17 307.82 1093.93 324.78 1093.87 341.73 L 1093.16 340.93 C 1093.08 326.28 1093.05 311.63 1093.10 296.98 Z" />
</g>
<g id="#242323b0">
<path fill="#242323" opacity="0.69" d=" M 1236.31 290.92 C 1236.97 292.87 1236.94 294.96 1236.93 297.00 C 1236.74 316.54 1237.14 336.09 1236.69 355.62 C 1232.17 355.34 1227.22 356.66 1222.97 355.02 C 1227.34 354.95 1231.71 355.03 1236.09 354.99 C 1236.22 333.63 1235.76 312.26 1236.31 290.92 Z" />
</g>
<g id="#1d1d1d4b">
<path fill="#1d1d1d" opacity="0.29" d=" M 1291.00 291.00 C 1313.53 291.08 1336.06 290.84 1358.59 291.11 C 1358.51 293.63 1358.49 296.14 1358.51 298.66 C 1342.00 298.76 1325.50 298.76 1309.00 298.67 C 1307.17 298.63 1303.93 297.98 1303.90 300.68 C 1304.06 306.45 1303.98 312.22 1304.01 318.00 C 1319.70 317.97 1335.40 318.07 1351.10 317.94 C 1351.36 320.64 1351.35 323.35 1351.10 326.05 C 1335.40 325.93 1319.70 326.03 1304.01 326.00 C 1303.94 332.08 1304.10 338.16 1303.93 344.24 C 1303.52 345.54 1304.26 346.74 1305.15 347.62 C 1321.43 347.18 1337.73 347.56 1354.02 347.41 C 1355.99 347.70 1358.75 346.65 1360.19 348.46 L 1359.65 348.39 C 1350.13 347.46 1340.54 348.25 1331.00 348.00 C 1321.41 347.94 1311.82 348.04 1302.24 347.97 C 1304.53 340.47 1302.48 332.60 1303.85 324.98 C 1319.58 325.00 1335.32 325.02 1351.05 324.97 C 1351.04 322.98 1351.03 321.00 1351.05 319.03 C 1335.30 318.97 1319.56 319.01 1303.82 319.02 C 1302.85 312.11 1304.06 305.10 1302.88 298.21 C 1321.28 297.71 1339.69 298.14 1358.10 298.01 C 1358.10 296.00 1358.11 294.00 1358.13 291.99 C 1351.79 290.90 1345.37 291.88 1339.00 291.75 C 1323.19 291.68 1307.39 291.55 1291.59 291.60 C 1291.47 312.75 1291.71 333.90 1291.59 355.05 L 1290.83 355.08 C 1291.22 333.73 1290.89 312.36 1291.00 291.00 Z" />
</g>
<g id="#1818183e">
<path fill="#181818" opacity="0.24" d=" M 1409.01 291.02 C 1413.33 290.98 1417.65 290.99 1421.98 291.01 C 1422.02 309.84 1421.98 328.67 1422.00 347.50 C 1438.01 347.61 1454.03 347.19 1470.03 347.72 C 1469.88 347.73 1469.58 347.75 1469.42 347.76 C 1453.45 348.25 1437.44 348.04 1421.46 347.88 C 1421.24 329.16 1421.63 310.44 1421.27 291.72 C 1417.42 291.51 1413.56 291.51 1409.72 291.72 C 1409.46 312.83 1409.57 333.95 1409.67 355.06 L 1408.82 355.09 C 1409.25 333.75 1408.86 312.37 1409.01 291.02 Z" />
</g>
<g id="#201f2070">
<path fill="#201f20" opacity="0.44" d=" M 50.20 298.20 C 58.10 297.83 66.02 298.13 73.93 298.04 C 78.00 298.11 82.20 297.57 86.13 298.93 C 74.32 299.08 62.50 298.96 50.69 299.01 C 50.65 306.00 50.65 312.99 50.69 319.99 C 61.65 320.12 72.62 319.77 83.57 320.16 L 84.58 320.28 C 80.12 321.42 75.50 320.87 70.96 320.97 C 64.04 320.89 57.11 321.18 50.19 320.79 C 50.06 313.26 50.05 305.73 50.20 298.20 Z" />
</g>
<g id="#1111114d">
<path fill="#111111" opacity="0.30" d=" M 412.42 298.28 C 421.62 297.81 430.84 298.15 440.05 298.04 C 447.21 298.20 454.41 297.59 461.53 298.56 C 459.70 298.87 457.84 299.03 455.98 299.02 C 441.66 298.95 427.33 299.06 413.01 298.96 C 412.99 305.07 413.00 311.17 413.01 317.28 C 428.14 317.47 443.29 317.05 458.41 317.45 L 457.74 317.52 C 442.65 317.80 427.53 317.44 412.42 317.60 C 412.27 311.16 412.28 304.72 412.42 298.28 Z" />
</g>
<g id="#1b1b1b5a">
<path fill="#1b1b1b" opacity="0.35" d=" M 412.48 325.40 L 412.99 325.24 C 412.92 335.30 413.18 345.37 412.86 355.43 C 408.53 355.25 404.20 355.48 399.88 355.17 C 404.06 354.96 408.24 354.95 412.42 354.99 C 412.54 345.12 412.35 335.26 412.48 325.40 Z" />
</g>
<g id="#1515154a">
<path fill="#151515" opacity="0.29" d=" M 50.14 327.63 C 62.90 327.60 75.66 327.65 88.42 327.59 C 75.85 328.53 63.18 327.74 50.57 328.00 C 50.55 337.06 50.74 346.12 50.44 355.17 C 49.59 346.02 50.03 336.80 50.14 327.63 Z" />
</g>
<g id="#363536fa">
<path fill="#363536" opacity="0.98" d=" M 584.36 347.53 C 585.76 350.04 584.84 353.02 584.79 355.74 C 561.70 356.33 538.58 355.88 515.48 355.93 L 515.91 355.25 C 538.59 354.66 561.33 355.17 584.03 355.00 C 584.08 352.51 584.15 350.01 584.36 347.53 Z" />
</g>
<g id="#353435ee">
<path fill="#353435" opacity="0.93" d=" M 1359.65 348.39 L 1360.19 348.46 C 1360.13 350.92 1360.00 353.38 1359.91 355.84 C 1338.27 356.25 1316.62 355.82 1294.98 356.04 C 1293.59 355.82 1291.69 356.52 1290.83 355.08 L 1291.59 355.05 C 1314.14 354.97 1336.70 354.97 1359.25 355.05 C 1359.50 352.83 1359.62 350.61 1359.65 348.39 Z" />
</g>
<g id="#2f2e2fe9">
<path fill="#2f2e2f" opacity="0.91" d=" M 37.55 355.18 C 41.84 354.90 46.15 354.90 50.44 355.17 C 48.19 356.49 45.46 355.86 42.97 356.04 C 41.17 355.88 39.10 356.38 37.55 355.18 Z" />
</g>
<g id="#363536ff">
<path fill="#363536" opacity="1.00" d=" M 1408.82 355.09 L 1409.67 355.06 C 1429.65 355.01 1449.64 354.87 1469.61 355.13 C 1468.47 355.76 1467.27 356.06 1465.99 356.03 C 1448.31 355.97 1430.62 355.98 1412.94 356.03 C 1411.55 355.85 1409.77 356.39 1408.82 355.09 Z" />
</g>
</svg>
