<?xml version="1.0" encoding="UTF-8" ?>
<!DOCTYPE svg PUBLIC "-//W3C//DTD SVG 1.1//EN" "http://www.w3.org/Graphics/SVG/1.1/DTD/svg11.dtd">
<svg width="884pt" height="535pt" viewBox="0 0 884 535" version="1.1" xmlns="http://www.w3.org/2000/svg">
<g id="#d31145ff">
<path fill="#d31145" opacity="1.00" d=" M 249.61 0.00 L 260.61 0.00 C 288.08 1.69 313.37 14.25 336.15 28.87 C 365.48 47.60 392.41 69.89 422.33 87.69 C 446.86 101.91 474.24 113.37 503.04 113.26 C 521.93 113.33 540.13 107.08 556.99 99.01 C 576.88 89.59 597.04 80.54 618.19 74.28 C 633.61 69.77 649.99 66.12 666.04 69.35 C 681.98 72.26 696.68 82.73 703.39 97.65 C 705.26 102.32 707.59 107.66 705.80 112.68 C 703.62 113.60 702.44 111.11 701.04 109.95 C 693.52 101.58 683.36 95.13 671.98 93.98 C 655.15 92.22 638.58 97.26 622.83 102.62 C 588.77 114.33 557.50 133.72 522.08 141.49 C 498.94 146.73 474.43 144.96 452.16 136.89 C 434.56 130.80 418.48 121.22 402.91 111.14 C 373.93 92.70 346.28 72.28 317.99 52.82 C 304.67 43.99 290.55 35.88 274.97 31.86 C 263.09 28.71 250.55 28.53 238.48 30.59 C 225.91 32.73 213.60 38.46 205.26 48.32 C 201.98 52.03 199.86 56.88 195.45 59.48 C 183.97 66.60 172.95 75.77 167.38 88.39 C 162.92 98.10 164.99 109.28 161.19 119.16 C 159.20 124.41 154.75 128.10 150.76 131.83 C 141.98 139.48 132.72 146.63 122.85 152.83 C 121.36 153.95 118.93 155.53 120.24 157.68 C 122.27 164.24 131.17 165.46 132.41 172.42 C 133.60 178.06 130.46 183.52 126.36 187.16 C 127.30 190.82 130.61 192.76 133.66 194.48 C 135.87 195.36 135.81 198.64 133.75 199.67 C 130.89 201.47 129.23 204.46 128.55 207.71 C 130.89 209.87 133.58 212.50 133.26 215.99 C 132.67 220.21 129.38 223.43 128.41 227.56 C 127.35 231.49 127.09 236.57 130.54 239.42 C 134.08 242.09 138.83 241.74 143.02 241.73 C 165.20 240.01 187.82 237.95 209.81 242.55 C 221.43 244.95 233.05 249.86 241.01 258.95 C 250.55 269.70 255.01 283.97 256.75 298.00 C 256.97 299.41 257.17 302.09 255.04 301.94 C 253.06 302.21 252.21 299.99 251.36 298.64 C 246.88 290.15 241.96 281.67 234.94 275.01 C 225.65 266.44 213.55 261.37 201.16 259.37 C 175.80 255.33 150.34 261.27 124.91 260.91 C 118.42 260.64 111.24 259.45 106.56 254.50 C 101.51 249.03 101.01 240.97 102.07 233.95 C 102.52 229.54 104.28 225.35 104.50 220.92 C 104.28 216.67 98.25 215.46 98.72 210.98 C 99.16 205.65 103.77 201.94 108.02 199.33 C 103.23 196.41 99.54 191.00 101.26 185.19 C 103.91 182.18 108.15 179.61 107.88 175.03 C 107.29 171.00 103.10 169.17 100.61 166.41 C 97.06 162.61 93.60 157.57 94.57 152.11 C 95.26 148.08 99.36 146.46 102.38 144.45 C 112.02 138.16 121.63 131.80 130.74 124.76 C 135.03 121.45 139.28 117.38 140.43 111.86 C 143.19 97.62 145.74 82.88 153.21 70.19 C 158.87 60.40 168.21 53.48 177.74 47.76 C 179.89 46.36 182.65 45.42 183.86 42.97 C 185.09 40.37 185.67 37.50 186.86 34.88 C 190.99 25.66 198.50 18.35 206.93 13.00 C 219.69 4.98 234.65 0.90 249.61 0.00 Z" />
<path fill="#d31145" opacity="1.00" d=" M 261.50 68.62 C 273.85 65.97 286.83 67.73 298.50 72.33 C 313.51 78.19 326.61 87.86 339.09 97.87 C 365.31 119.48 392.27 140.56 422.25 156.78 C 439.63 166.11 458.19 173.96 477.89 176.54 C 491.19 178.71 504.86 179.22 518.15 176.73 C 537.67 173.19 556.30 166.08 574.65 158.73 C 588.35 153.23 601.76 147.07 615.31 141.22 C 633.21 133.96 651.74 127.78 670.95 125.19 C 686.97 123.01 704.28 125.04 718.00 134.11 C 730.36 142.25 737.63 156.54 739.34 170.99 C 739.41 172.87 739.42 175.83 737.08 176.29 C 735.23 175.86 734.51 173.86 733.39 172.56 C 726.03 162.19 714.85 154.34 702.17 152.33 C 685.17 149.57 668.08 153.99 651.98 159.15 C 634.32 165.02 617.27 172.57 600.41 180.39 C 580.00 189.58 559.10 197.82 537.45 203.56 C 517.14 208.92 495.96 212.08 474.96 209.90 C 460.92 208.50 447.23 204.47 434.34 198.78 C 420.90 192.76 407.55 186.22 395.79 177.25 C 367.00 155.69 343.52 128.09 315.98 105.08 C 302.45 94.10 286.64 84.95 269.12 82.62 C 261.08 81.41 252.96 82.58 245.04 84.04 C 243.17 84.27 241.01 84.89 239.35 83.67 C 237.60 81.73 239.84 79.57 241.29 78.28 C 247.10 73.48 254.13 70.16 261.50 68.62 Z" />
<path fill="#d31145" opacity="1.00" d=" M 299.41 147.66 C 311.72 145.24 323.98 150.56 334.37 156.73 C 358.97 172.58 377.65 195.74 401.43 212.66 C 422.93 228.51 448.37 239.41 475.07 242.07 C 497.13 244.41 519.49 241.63 540.81 235.78 C 560.83 230.27 579.97 222.08 599.15 214.21 C 617.16 206.22 635.29 198.36 654.11 192.43 C 670.91 187.18 688.29 182.93 705.99 182.95 C 719.23 182.91 732.89 186.30 743.46 194.56 C 755.07 203.43 762.01 217.59 763.23 232.02 C 763.27 234.21 763.38 237.35 761.03 238.41 C 758.68 238.57 757.86 235.92 756.72 234.39 C 750.17 223.44 739.11 215.28 726.61 212.59 C 710.02 208.88 692.83 212.15 676.77 216.77 C 654.42 223.38 633.52 233.83 612.26 243.21 C 582.23 256.72 551.03 268.86 518.11 272.76 C 500.09 275.04 481.81 274.54 463.84 272.11 C 440.10 268.65 418.64 256.55 399.72 242.31 C 378.49 226.42 360.39 206.93 342.28 187.69 C 332.07 176.56 320.84 166.31 308.40 157.71 C 304.44 154.85 299.47 154.08 295.28 151.74 C 294.42 149.21 297.49 148.10 299.41 147.66 Z" />
<path fill="#d31145" opacity="1.00" d=" M 0.00 324.23 C 10.20 324.28 20.39 324.22 30.59 324.26 C 41.61 358.77 52.59 393.28 63.63 427.78 C 74.44 397.90 85.19 368.00 96.09 338.16 C 98.06 332.80 101.91 326.92 108.12 326.37 C 114.45 326.19 120.82 326.24 127.14 326.62 C 131.87 326.89 134.94 331.22 136.59 335.23 C 147.58 366.13 158.62 397.01 169.61 427.91 C 181.09 393.37 192.45 358.79 203.90 324.25 C 213.98 324.25 224.06 324.24 234.14 324.25 C 217.73 373.29 201.42 422.36 184.96 471.37 C 174.99 471.38 165.01 471.37 155.04 471.38 C 142.14 436.19 129.27 400.99 116.39 365.80 C 102.96 400.98 89.60 436.19 76.19 471.37 C 66.64 471.38 57.10 471.37 47.56 471.38 C 32.75 425.82 18.04 380.24 3.26 334.68 C 2.31 331.96 1.85 328.95 0.00 326.64 L 0.00 324.23 Z" />
<path fill="#d31145" opacity="1.00" d=" M 416.38 324.38 C 426.08 324.37 435.79 324.37 445.50 324.38 C 445.52 362.24 445.47 400.10 445.53 437.95 C 445.50 442.35 449.62 446.02 453.94 445.86 C 479.32 445.90 504.69 445.85 530.07 445.89 C 533.77 445.67 537.28 447.80 539.07 451.00 C 542.64 457.17 542.97 464.55 543.01 471.51 C 514.00 471.50 484.99 471.50 455.98 471.50 C 448.00 471.34 439.63 472.37 432.10 469.11 C 425.16 466.34 420.12 460.02 418.04 452.96 C 415.88 446.53 416.42 439.69 416.37 433.03 C 416.37 396.81 416.37 360.59 416.38 324.38 Z" />
<path fill="#d31145" opacity="1.00" d=" M 556.62 324.38 C 566.33 324.36 576.04 324.38 585.75 324.37 C 585.78 362.25 585.70 400.13 585.78 438.00 C 585.81 442.69 590.47 446.29 595.00 445.88 C 623.71 445.88 652.41 445.87 681.12 445.88 C 677.21 454.52 673.03 463.04 668.74 471.50 C 640.64 471.48 612.53 471.55 584.43 471.47 C 575.70 471.45 566.48 467.86 561.71 460.21 C 556.74 452.83 556.35 443.62 556.62 435.02 C 556.62 398.14 556.62 361.26 556.62 324.38 Z" />
<path fill="#d31145" opacity="1.00" d=" M 753.42 331.42 C 757.65 326.89 763.73 324.10 769.96 324.24 C 778.33 324.28 786.69 324.20 795.06 324.28 C 803.63 324.52 811.19 330.50 814.84 338.03 C 836.07 382.47 857.30 426.91 878.50 471.37 C 867.03 471.38 855.57 471.38 844.11 471.37 C 839.69 462.00 835.29 452.61 830.86 443.25 C 798.14 443.28 765.42 443.20 732.70 443.29 C 728.34 452.67 723.91 462.02 719.50 471.38 C 708.02 471.37 696.55 471.38 685.08 471.37 C 704.69 430.22 724.36 389.10 743.99 347.96 C 746.90 342.32 748.89 336.03 753.42 331.42 M 776.37 351.31 C 773.01 353.88 771.62 358.05 769.63 361.63 C 759.93 381.16 750.84 401.00 741.87 420.88 C 768.50 420.86 795.13 420.89 821.76 420.87 C 813.11 401.78 804.41 382.70 795.09 363.92 C 793.26 360.40 791.60 356.79 789.48 353.44 C 786.81 349.14 780.28 348.19 776.37 351.31 Z" />
<path fill="#d31145" opacity="1.00" d=" M 260.09 330.18 C 266.48 325.81 274.43 324.61 282.01 324.62 C 320.45 324.63 358.89 324.61 397.33 324.64 C 396.67 331.45 395.72 338.43 392.64 344.62 C 391.19 347.57 388.57 350.61 384.99 350.49 C 351.99 350.55 318.99 350.43 285.99 350.55 C 281.90 350.46 278.34 353.95 278.20 358.00 C 278.01 366.41 278.18 374.83 278.13 383.25 C 306.25 383.26 334.38 383.24 362.50 383.26 C 362.48 391.88 362.54 400.51 362.48 409.13 C 334.36 409.12 306.24 409.13 278.13 409.13 C 278.20 419.02 277.97 428.93 278.24 438.82 C 278.47 443.20 282.79 446.06 286.94 445.74 C 319.61 445.74 352.29 445.81 384.97 445.65 C 389.31 445.48 392.96 448.60 394.73 452.34 C 397.63 458.25 398.15 465.00 398.15 471.49 C 359.11 471.51 320.07 471.50 281.03 471.50 C 272.67 471.45 263.94 469.10 257.79 463.18 C 251.08 456.74 247.75 447.19 248.11 437.98 C 248.14 409.96 248.12 381.94 248.12 353.92 C 248.16 344.76 252.34 335.34 260.09 330.18 Z" />
<path fill="#d31145" opacity="1.00" d=" M 247.79 489.49 C 254.20 489.21 260.62 489.46 267.04 489.36 C 271.99 489.30 277.28 489.68 281.55 492.46 C 289.42 497.63 288.52 511.75 279.54 515.30 C 271.14 518.72 261.83 516.91 253.01 517.37 C 252.99 522.87 253.01 528.38 253.00 533.88 C 251.29 533.87 249.58 533.87 247.88 533.88 C 247.81 519.08 247.99 504.29 247.79 489.49 M 253.00 493.88 C 253.00 500.25 253.00 506.62 253.00 513.00 C 258.34 512.98 263.68 513.03 269.01 512.99 C 272.27 512.88 275.76 512.51 278.47 510.52 C 282.07 507.82 282.49 502.34 280.47 498.57 C 278.35 494.98 273.83 494.07 269.99 493.92 C 264.33 493.80 258.66 493.91 253.00 493.88 Z" />
<path fill="#d31145" opacity="1.00" d=" M 299.50 489.38 C 306.34 489.36 313.18 489.39 320.02 489.36 C 324.36 489.34 328.97 489.81 332.66 492.33 C 339.07 496.76 338.72 507.95 331.99 511.93 C 329.89 513.30 327.39 513.74 324.98 514.23 C 330.43 520.73 335.77 527.32 341.14 533.89 C 338.93 533.89 336.73 533.88 334.53 533.78 C 329.82 527.49 324.94 521.32 320.12 515.12 C 314.96 515.13 309.79 515.12 304.63 515.13 C 304.62 521.37 304.63 527.62 304.63 533.87 C 302.92 533.87 301.20 533.86 299.50 533.88 C 299.49 519.05 299.50 504.21 299.50 489.38 M 304.63 493.88 C 304.62 499.58 304.63 505.29 304.63 511.00 C 310.10 510.96 315.58 511.07 321.05 510.96 C 324.38 510.82 328.15 510.12 330.35 507.36 C 332.69 504.17 332.61 499.08 329.59 496.35 C 326.95 494.15 323.33 493.89 320.04 493.86 C 314.90 493.88 309.76 493.87 304.63 493.88 Z" />
<path fill="#d31145" opacity="1.00" d=" M 355.25 493.22 C 362.01 488.21 371.03 488.15 379.05 489.01 C 386.26 489.71 393.49 494.12 395.56 501.39 C 397.78 509.30 397.79 518.42 393.74 525.76 C 390.53 531.51 383.86 533.44 377.93 535.00 L 367.22 535.00 C 362.63 533.58 357.59 532.55 354.06 529.03 C 349.22 524.43 348.04 517.38 348.13 510.99 C 348.17 504.52 349.81 497.33 355.25 493.22 M 367.48 493.65 C 363.09 494.19 358.47 496.05 356.10 500.01 C 353.09 505.07 353.15 511.31 353.88 516.97 C 354.52 522.30 358.22 527.21 363.49 528.67 C 369.86 530.44 376.94 530.49 383.17 528.13 C 388.46 526.11 391.21 520.43 391.51 515.04 C 391.94 508.90 391.69 501.63 386.74 497.23 C 381.39 492.92 373.96 493.06 367.48 493.65 Z" />
<path fill="#d31145" opacity="1.00" d=" M 411.13 489.37 C 423.25 489.37 435.36 489.38 447.48 489.37 C 447.53 491.03 447.59 492.70 447.66 494.37 C 437.15 494.38 426.64 494.38 416.13 494.37 C 416.12 499.25 416.13 504.12 416.12 509.00 C 425.00 509.01 433.88 508.99 442.76 509.01 C 442.74 510.54 442.74 512.08 442.75 513.63 C 433.87 513.63 425.00 513.62 416.13 513.63 C 416.12 520.38 416.13 527.13 416.12 533.88 C 414.45 533.87 412.79 533.87 411.12 533.88 C 411.12 519.04 411.11 504.21 411.13 489.37 Z" />
<path fill="#d31145" opacity="1.00" d=" M 459.75 489.38 C 471.95 489.41 484.15 489.27 496.35 489.45 C 496.37 491.00 496.39 492.56 496.42 494.13 C 485.90 494.13 475.39 494.12 464.88 494.13 C 464.88 498.96 464.86 503.79 464.89 508.63 C 473.97 508.63 483.04 508.62 492.12 508.63 C 492.12 510.00 492.12 511.37 492.12 512.75 C 483.04 512.76 473.96 512.74 464.88 512.76 C 464.87 518.21 464.87 523.66 464.88 529.12 C 475.89 529.14 486.91 529.09 497.92 529.15 C 497.84 530.72 497.76 532.30 497.70 533.89 C 485.05 533.86 472.40 533.89 459.75 533.87 C 459.74 519.04 459.75 504.21 459.75 489.38 Z" />
<path fill="#d31145" opacity="1.00" d=" M 514.06 491.14 C 522.72 486.88 533.11 488.23 541.90 491.41 C 541.63 492.95 541.36 494.49 541.09 496.03 C 534.60 493.75 527.55 492.39 520.71 493.74 C 517.32 494.46 513.50 496.36 512.70 500.06 C 512.07 502.56 513.92 504.88 516.13 505.82 C 523.60 509.05 532.45 508.10 539.44 512.62 C 544.65 515.91 544.76 523.68 541.22 528.25 C 538.33 532.23 533.36 533.58 528.92 535.00 L 519.69 535.00 C 515.43 533.82 511.16 532.58 507.17 530.66 C 507.42 529.02 507.68 527.40 507.94 525.78 C 514.99 529.58 523.44 531.31 531.29 529.22 C 534.74 528.28 538.27 525.77 538.72 521.97 C 539.22 519.34 537.32 517.00 535.04 515.99 C 527.26 512.45 517.72 513.70 510.74 508.28 C 505.23 503.51 507.84 494.02 514.06 491.14 Z" />
<path fill="#d31145" opacity="1.00" d=" M 559.02 491.02 C 567.65 486.91 577.90 488.28 586.63 491.39 C 586.37 492.93 586.11 494.48 585.87 496.03 C 579.14 493.69 571.81 492.27 564.76 493.90 C 561.33 494.72 557.47 497.10 557.34 501.01 C 557.23 503.63 559.60 505.42 561.83 506.24 C 569.14 508.95 577.57 508.31 584.28 512.68 C 589.53 516.10 589.47 524.07 585.69 528.57 C 582.76 532.35 577.94 533.65 573.59 535.00 L 564.44 535.00 C 560.17 533.80 555.89 532.59 551.89 530.65 C 552.15 529.02 552.42 527.40 552.70 525.78 C 560.60 529.98 570.66 531.97 579.02 527.99 C 583.15 526.20 585.50 519.68 581.17 516.83 C 573.19 512.01 562.38 514.23 555.10 507.92 C 549.98 502.89 552.85 493.77 559.02 491.02 Z" />
<path fill="#d31145" opacity="1.00" d=" M 602.13 489.37 C 603.83 489.37 605.54 489.38 607.25 489.38 C 607.25 504.21 607.25 519.04 607.25 533.88 C 605.53 533.87 603.83 533.87 602.12 533.88 C 602.12 519.04 602.11 504.20 602.13 489.37 Z" />
<path fill="#d31145" opacity="1.00" d=" M 635.92 489.98 C 643.79 487.96 652.46 487.90 660.11 490.84 C 666.32 493.24 670.16 499.54 670.83 505.99 C 671.67 513.50 671.40 522.08 666.22 528.09 C 662.68 532.30 657.11 533.59 652.06 535.00 L 641.57 535.00 C 636.18 533.54 630.20 532.06 626.70 527.32 C 621.80 520.70 621.73 511.77 623.09 503.99 C 624.23 497.33 629.34 491.63 635.92 489.98 M 637.37 494.64 C 631.95 496.21 628.45 501.48 627.96 506.94 C 627.23 513.33 627.45 520.89 632.37 525.67 C 637.16 529.87 643.99 530.13 650.03 529.79 C 655.26 529.47 661.07 527.50 663.62 522.55 C 666.39 517.11 666.30 510.62 665.19 504.76 C 664.28 499.77 660.39 495.58 655.46 494.38 C 649.57 492.92 643.20 492.88 637.37 494.64 Z" />
<path fill="#d31145" opacity="1.00" d=" M 685.25 489.36 C 687.26 489.60 689.95 488.55 691.33 490.56 C 702.51 502.47 713.95 514.15 725.03 526.16 C 725.05 513.89 724.80 501.63 724.89 489.37 C 726.41 489.37 727.96 489.38 729.50 489.38 C 729.50 504.21 729.51 519.04 729.50 533.87 C 728.67 533.88 727.01 533.88 726.18 533.88 C 714.11 521.20 701.75 508.78 689.86 495.93 C 690.16 508.57 689.93 521.23 690.00 533.88 C 688.40 533.87 686.82 533.87 685.25 533.87 C 685.25 519.04 685.24 504.20 685.25 489.36 Z" />
<path fill="#d31145" opacity="1.00" d=" M 763.84 489.39 C 765.74 489.37 767.65 489.37 769.58 489.38 C 777.57 504.21 785.57 519.04 793.57 533.86 C 791.64 533.87 789.72 533.88 787.81 533.94 C 785.73 530.22 783.87 526.37 781.85 522.62 C 771.71 522.62 761.58 522.65 751.44 522.61 C 749.43 526.32 747.48 530.07 745.56 533.83 C 743.67 533.86 741.79 533.87 739.92 533.88 C 747.87 519.04 755.89 504.23 763.84 489.39 M 766.77 493.00 C 762.63 501.47 758.04 509.72 753.73 518.11 C 762.34 518.13 770.94 518.12 779.55 518.12 C 775.29 509.74 770.83 501.47 766.77 493.00 Z" />
<path fill="#d31145" opacity="1.00" d=" M 803.89 489.37 C 805.57 489.37 807.28 489.36 808.99 489.37 C 809.02 502.53 808.99 515.70 809.00 528.88 C 819.27 528.87 829.53 528.88 839.80 528.87 C 839.74 530.52 839.70 532.18 839.67 533.84 C 827.74 533.92 815.81 533.86 803.88 533.87 C 803.88 519.04 803.86 504.21 803.89 489.37 Z" />
<path fill="#d31145" opacity="1.00" d=" M 854.69 490.77 C 863.26 487.00 873.27 488.30 881.85 491.42 C 881.57 492.95 881.30 494.49 881.04 496.03 C 874.49 493.74 867.38 492.37 860.49 493.77 C 857.16 494.50 853.48 496.42 852.66 500.01 C 851.92 502.81 854.22 505.25 856.70 506.10 C 862.55 508.35 868.96 508.41 874.88 510.45 C 879.17 511.60 882.63 514.83 884.00 519.08 L 884.00 522.55 C 882.82 525.56 881.43 528.71 878.76 530.70 C 875.89 532.93 872.28 533.84 868.91 535.00 L 859.70 535.00 C 855.41 533.83 851.11 532.61 847.11 530.64 C 847.36 529.02 847.63 527.41 847.90 525.80 C 855.58 529.87 865.12 531.76 873.39 528.42 C 877.24 526.96 880.34 522.01 877.79 518.19 C 874.85 514.79 869.99 514.42 865.89 513.47 C 860.11 512.20 853.21 511.68 849.26 506.70 C 845.50 501.17 848.80 493.26 854.69 490.77 Z" />
</g>
</svg>
